<mxfile host="drawio-plugin" modified="2021-12-15T17:53:27.679Z" agent="5.0 (Windows NT 6.2; Win64; x64) AppleWebKit/537.36 (KHTML, like Gecko) Chrome/89.0.4389.114 Safari/537.36" etag="MTb2O1IfTz5bKGF_yqyA" version="14.7.4" type="embed"><diagram id="kQoH5dtpGoCFLax4roNe" name="Programa"><mxGraphModel dx="1767" dy="2363" grid="1" gridSize="10" guides="1" tooltips="1" connect="1" arrows="1" fold="1" page="1" pageScale="1" pageWidth="827" pageHeight="1169" math="0" shadow="0"><root><mxCell id="0"/><mxCell id="1" parent="0"/><mxCell id="OYpLQ3D31SUY-RjP1pAd-1" value="AbstUsuario: abstract" style="swimlane;fontStyle=3;align=center;verticalAlign=top;childLayout=stackLayout;horizontal=1;startSize=30;horizontalStack=0;resizeParent=1;resizeParentMax=0;resizeLast=0;collapsible=1;marginBottom=0;" parent="1" vertex="1"><mxGeometry x="640" y="609" width="280" height="428" as="geometry"/></mxCell><mxCell id="OYpLQ3D31SUY-RjP1pAd-2" value="+ Id: int" style="text;strokeColor=none;fillColor=none;align=left;verticalAlign=top;spacingLeft=4;spacingRight=4;overflow=hidden;rotatable=0;points=[[0,0.5],[1,0.5]];portConstraint=eastwest;" parent="OYpLQ3D31SUY-RjP1pAd-1" vertex="1"><mxGeometry y="30" width="280" height="26" as="geometry"/></mxCell><mxCell id="OYpLQ3D31SUY-RjP1pAd-3" value="+ Nombre: string" style="text;strokeColor=none;fillColor=none;align=left;verticalAlign=top;spacingLeft=4;spacingRight=4;overflow=hidden;rotatable=0;points=[[0,0.5],[1,0.5]];portConstraint=eastwest;" parent="OYpLQ3D31SUY-RjP1pAd-1" vertex="1"><mxGeometry y="56" width="280" height="26" as="geometry"/></mxCell><mxCell id="OYpLQ3D31SUY-RjP1pAd-4" value="+ ApellidoPaterno: string" style="text;strokeColor=none;fillColor=none;align=left;verticalAlign=top;spacingLeft=4;spacingRight=4;overflow=hidden;rotatable=0;points=[[0,0.5],[1,0.5]];portConstraint=eastwest;" parent="OYpLQ3D31SUY-RjP1pAd-1" vertex="1"><mxGeometry y="82" width="280" height="26" as="geometry"/></mxCell><mxCell id="OYpLQ3D31SUY-RjP1pAd-5" value="+ ApellidoMaterno: string" style="text;strokeColor=none;fillColor=none;align=left;verticalAlign=top;spacingLeft=4;spacingRight=4;overflow=hidden;rotatable=0;points=[[0,0.5],[1,0.5]];portConstraint=eastwest;" parent="OYpLQ3D31SUY-RjP1pAd-1" vertex="1"><mxGeometry y="108" width="280" height="26" as="geometry"/></mxCell><mxCell id="HmQ8k9gzMqxAlb5C0-Fg-166" value="+ Domicilio: string" style="text;strokeColor=none;fillColor=none;align=left;verticalAlign=top;spacingLeft=4;spacingRight=4;overflow=hidden;rotatable=0;points=[[0,0.5],[1,0.5]];portConstraint=eastwest;" parent="OYpLQ3D31SUY-RjP1pAd-1" vertex="1"><mxGeometry y="134" width="280" height="26" as="geometry"/></mxCell><mxCell id="OYpLQ3D31SUY-RjP1pAd-6" value="+ FechaNacimiento: DateTime" style="text;strokeColor=none;fillColor=none;align=left;verticalAlign=top;spacingLeft=4;spacingRight=4;overflow=hidden;rotatable=0;points=[[0,0.5],[1,0.5]];portConstraint=eastwest;" parent="OYpLQ3D31SUY-RjP1pAd-1" vertex="1"><mxGeometry y="160" width="280" height="26" as="geometry"/></mxCell><mxCell id="OYpLQ3D31SUY-RjP1pAd-7" value="+ Telefono: string" style="text;strokeColor=none;fillColor=none;align=left;verticalAlign=top;spacingLeft=4;spacingRight=4;overflow=hidden;rotatable=0;points=[[0,0.5],[1,0.5]];portConstraint=eastwest;" parent="OYpLQ3D31SUY-RjP1pAd-1" vertex="1"><mxGeometry y="186" width="280" height="26" as="geometry"/></mxCell><mxCell id="OYpLQ3D31SUY-RjP1pAd-8" value="+ NombreContacto: string" style="text;strokeColor=none;fillColor=none;align=left;verticalAlign=top;spacingLeft=4;spacingRight=4;overflow=hidden;rotatable=0;points=[[0,0.5],[1,0.5]];portConstraint=eastwest;" parent="OYpLQ3D31SUY-RjP1pAd-1" vertex="1"><mxGeometry y="212" width="280" height="26" as="geometry"/></mxCell><mxCell id="OYpLQ3D31SUY-RjP1pAd-9" value="+ TelefonoContracto: string" style="text;strokeColor=none;fillColor=none;align=left;verticalAlign=top;spacingLeft=4;spacingRight=4;overflow=hidden;rotatable=0;points=[[0,0.5],[1,0.5]];portConstraint=eastwest;" parent="OYpLQ3D31SUY-RjP1pAd-1" vertex="1"><mxGeometry y="238" width="280" height="26" as="geometry"/></mxCell><mxCell id="OYpLQ3D31SUY-RjP1pAd-10" value="+ Foto: MagikImage" style="text;strokeColor=none;fillColor=none;align=left;verticalAlign=top;spacingLeft=4;spacingRight=4;overflow=hidden;rotatable=0;points=[[0,0.5],[1,0.5]];portConstraint=eastwest;" parent="OYpLQ3D31SUY-RjP1pAd-1" vertex="1"><mxGeometry y="264" width="280" height="26" as="geometry"/></mxCell><mxCell id="210" value="+ FotoRaw: byte[]" style="text;strokeColor=none;fillColor=none;align=left;verticalAlign=top;spacingLeft=4;spacingRight=4;overflow=hidden;rotatable=0;points=[[0,0.5],[1,0.5]];portConstraint=eastwest;" vertex="1" parent="OYpLQ3D31SUY-RjP1pAd-1"><mxGeometry y="290" width="280" height="26" as="geometry"/></mxCell><mxCell id="211" value="+ FotoBitmap: BitmapImage" style="text;strokeColor=none;fillColor=none;align=left;verticalAlign=top;spacingLeft=4;spacingRight=4;overflow=hidden;rotatable=0;points=[[0,0.5],[1,0.5]];portConstraint=eastwest;" vertex="1" parent="OYpLQ3D31SUY-RjP1pAd-1"><mxGeometry y="316" width="280" height="26" as="geometry"/></mxCell><mxCell id="OYpLQ3D31SUY-RjP1pAd-13" value="" style="line;strokeWidth=1;fillColor=none;align=left;verticalAlign=middle;spacingTop=-1;spacingLeft=3;spacingRight=3;rotatable=0;labelPosition=right;points=[];portConstraint=eastwest;" parent="OYpLQ3D31SUY-RjP1pAd-1" vertex="1"><mxGeometry y="342" width="280" height="8" as="geometry"/></mxCell><mxCell id="OYpLQ3D31SUY-RjP1pAd-14" value="+ abstract Update(): Int " style="text;strokeColor=none;fillColor=none;align=left;verticalAlign=top;spacingLeft=4;spacingRight=4;overflow=hidden;rotatable=0;points=[[0,0.5],[1,0.5]];portConstraint=eastwest;" parent="OYpLQ3D31SUY-RjP1pAd-1" vertex="1"><mxGeometry y="350" width="280" height="26" as="geometry"/></mxCell><mxCell id="OYpLQ3D31SUY-RjP1pAd-15" value="+ abstract Delete(): Int " style="text;strokeColor=none;fillColor=none;align=left;verticalAlign=top;spacingLeft=4;spacingRight=4;overflow=hidden;rotatable=0;points=[[0,0.5],[1,0.5]];portConstraint=eastwest;" parent="OYpLQ3D31SUY-RjP1pAd-1" vertex="1"><mxGeometry y="376" width="280" height="26" as="geometry"/></mxCell><mxCell id="OYpLQ3D31SUY-RjP1pAd-16" value="+ abstract Alta(): Int " style="text;strokeColor=none;fillColor=none;align=left;verticalAlign=top;spacingLeft=4;spacingRight=4;overflow=hidden;rotatable=0;points=[[0,0.5],[1,0.5]];portConstraint=eastwest;" parent="OYpLQ3D31SUY-RjP1pAd-1" vertex="1"><mxGeometry y="402" width="280" height="26" as="geometry"/></mxCell><mxCell id="OYpLQ3D31SUY-RjP1pAd-17" value="Cliente" style="swimlane;fontStyle=1;align=center;verticalAlign=top;childLayout=stackLayout;horizontal=1;startSize=26;horizontalStack=0;resizeParent=1;resizeParentMax=0;resizeLast=0;collapsible=1;marginBottom=0;" parent="1" vertex="1"><mxGeometry x="1580" y="-409" width="320" height="632" as="geometry"><mxRectangle x="360" y="140" width="70" height="26" as="alternateBounds"/></mxGeometry></mxCell><mxCell id="OYpLQ3D31SUY-RjP1pAd-18" value="+ CondicionEspecial: bool" style="text;strokeColor=none;fillColor=none;align=left;verticalAlign=top;spacingLeft=4;spacingRight=4;overflow=hidden;rotatable=0;points=[[0,0.5],[1,0.5]];portConstraint=eastwest;" parent="OYpLQ3D31SUY-RjP1pAd-17" vertex="1"><mxGeometry y="26" width="320" height="26" as="geometry"/></mxCell><mxCell id="HmQ8k9gzMqxAlb5C0-Fg-165" value="+ DescripcionCondicionEspecial: string" style="text;strokeColor=none;fillColor=none;align=left;verticalAlign=top;spacingLeft=4;spacingRight=4;overflow=hidden;rotatable=0;points=[[0,0.5],[1,0.5]];portConstraint=eastwest;" parent="OYpLQ3D31SUY-RjP1pAd-17" vertex="1"><mxGeometry y="52" width="320" height="26" as="geometry"/></mxCell><mxCell id="OYpLQ3D31SUY-RjP1pAd-25" value="+ Activo: bool" style="text;strokeColor=none;fillColor=none;align=left;verticalAlign=top;spacingLeft=4;spacingRight=4;overflow=hidden;rotatable=0;points=[[0,0.5],[1,0.5]];portConstraint=eastwest;" parent="OYpLQ3D31SUY-RjP1pAd-17" vertex="1"><mxGeometry y="78" width="320" height="26" as="geometry"/></mxCell><mxCell id="OYpLQ3D31SUY-RjP1pAd-23" value="+ FechaVencimientoPago: DateTime" style="text;strokeColor=none;fillColor=none;align=left;verticalAlign=top;spacingLeft=4;spacingRight=4;overflow=hidden;rotatable=0;points=[[0,0.5],[1,0.5]];portConstraint=eastwest;" parent="OYpLQ3D31SUY-RjP1pAd-17" vertex="1"><mxGeometry y="104" width="320" height="26" as="geometry"/></mxCell><mxCell id="OYpLQ3D31SUY-RjP1pAd-21" value="+ DeudaCliente: decimal" style="text;strokeColor=none;fillColor=none;align=left;verticalAlign=top;spacingLeft=4;spacingRight=4;overflow=hidden;rotatable=0;points=[[0,0.5],[1,0.5]];portConstraint=eastwest;" parent="OYpLQ3D31SUY-RjP1pAd-17" vertex="1"><mxGeometry y="130" width="320" height="26" as="geometry"/></mxCell><mxCell id="OYpLQ3D31SUY-RjP1pAd-26" value="+ MedioConocio: string" style="text;strokeColor=none;fillColor=none;align=left;verticalAlign=top;spacingLeft=4;spacingRight=4;overflow=hidden;rotatable=0;points=[[0,0.5],[1,0.5]];portConstraint=eastwest;" parent="OYpLQ3D31SUY-RjP1pAd-17" vertex="1"><mxGeometry y="156" width="320" height="26" as="geometry"/></mxCell><mxCell id="OYpLQ3D31SUY-RjP1pAd-279" value="+ ClasesTotalesDisponibles: int" style="text;strokeColor=none;fillColor=none;align=left;verticalAlign=top;spacingLeft=4;spacingRight=4;overflow=hidden;rotatable=0;points=[[0,0.5],[1,0.5]];portConstraint=eastwest;" parent="OYpLQ3D31SUY-RjP1pAd-17" vertex="1"><mxGeometry y="182" width="320" height="26" as="geometry"/></mxCell><mxCell id="OYpLQ3D31SUY-RjP1pAd-280" value="+ ClasesSemanaDisponibles: int" style="text;strokeColor=none;fillColor=none;align=left;verticalAlign=top;spacingLeft=4;spacingRight=4;overflow=hidden;rotatable=0;points=[[0,0.5],[1,0.5]];portConstraint=eastwest;" parent="OYpLQ3D31SUY-RjP1pAd-17" vertex="1"><mxGeometry y="208" width="320" height="26" as="geometry"/></mxCell><mxCell id="OYpLQ3D31SUY-RjP1pAd-22" value="+ Descuento: decimal" style="text;strokeColor=none;fillColor=none;align=left;verticalAlign=top;spacingLeft=4;spacingRight=4;overflow=hidden;rotatable=0;points=[[0,0.5],[1,0.5]];portConstraint=eastwest;" parent="OYpLQ3D31SUY-RjP1pAd-17" vertex="1"><mxGeometry y="234" width="320" height="26" as="geometry"/></mxCell><mxCell id="OYpLQ3D31SUY-RjP1pAd-281" value="+ Niño: bool" style="text;strokeColor=none;fillColor=none;align=left;verticalAlign=top;spacingLeft=4;spacingRight=4;overflow=hidden;rotatable=0;points=[[0,0.5],[1,0.5]];portConstraint=eastwest;" parent="OYpLQ3D31SUY-RjP1pAd-17" vertex="1"><mxGeometry y="260" width="320" height="26" as="geometry"/></mxCell><mxCell id="OYpLQ3D31SUY-RjP1pAd-282" value="+ IdPaquete: int" style="text;strokeColor=none;fillColor=none;align=left;verticalAlign=top;spacingLeft=4;spacingRight=4;overflow=hidden;rotatable=0;points=[[0,0.5],[1,0.5]];portConstraint=eastwest;" parent="OYpLQ3D31SUY-RjP1pAd-17" vertex="1"><mxGeometry y="286" width="320" height="26" as="geometry"/></mxCell><mxCell id="OYpLQ3D31SUY-RjP1pAd-283" value="+ NombrePaquete: int" style="text;strokeColor=none;fillColor=none;align=left;verticalAlign=top;spacingLeft=4;spacingRight=4;overflow=hidden;rotatable=0;points=[[0,0.5],[1,0.5]];portConstraint=eastwest;" parent="OYpLQ3D31SUY-RjP1pAd-17" vertex="1"><mxGeometry y="312" width="320" height="26" as="geometry"/></mxCell><mxCell id="OYpLQ3D31SUY-RjP1pAd-19" value="+ IdTipoCliente: int" style="text;strokeColor=none;fillColor=none;align=left;verticalAlign=top;spacingLeft=4;spacingRight=4;overflow=hidden;rotatable=0;points=[[0,0.5],[1,0.5]];portConstraint=eastwest;" parent="OYpLQ3D31SUY-RjP1pAd-17" vertex="1"><mxGeometry y="338" width="320" height="26" as="geometry"/></mxCell><mxCell id="OYpLQ3D31SUY-RjP1pAd-20" value="+ NombreTipoCliente: string" style="text;strokeColor=none;fillColor=none;align=left;verticalAlign=top;spacingLeft=4;spacingRight=4;overflow=hidden;rotatable=0;points=[[0,0.5],[1,0.5]];portConstraint=eastwest;" parent="OYpLQ3D31SUY-RjP1pAd-17" vertex="1"><mxGeometry y="364" width="320" height="26" as="geometry"/></mxCell><mxCell id="OYpLQ3D31SUY-RjP1pAd-27" value="+ IdLocker: int" style="text;strokeColor=none;fillColor=none;align=left;verticalAlign=top;spacingLeft=4;spacingRight=4;overflow=hidden;rotatable=0;points=[[0,0.5],[1,0.5]];portConstraint=eastwest;" parent="OYpLQ3D31SUY-RjP1pAd-17" vertex="1"><mxGeometry y="390" width="320" height="26" as="geometry"/></mxCell><mxCell id="OYpLQ3D31SUY-RjP1pAd-284" value="+ NombreLocker: int" style="text;strokeColor=none;fillColor=none;align=left;verticalAlign=top;spacingLeft=4;spacingRight=4;overflow=hidden;rotatable=0;points=[[0,0.5],[1,0.5]];portConstraint=eastwest;" parent="OYpLQ3D31SUY-RjP1pAd-17" vertex="1"><mxGeometry y="416" width="320" height="26" as="geometry"/></mxCell><mxCell id="OYpLQ3D31SUY-RjP1pAd-28" value="" style="line;strokeWidth=1;fillColor=none;align=left;verticalAlign=middle;spacingTop=-1;spacingLeft=3;spacingRight=3;rotatable=0;labelPosition=right;points=[];portConstraint=eastwest;" parent="OYpLQ3D31SUY-RjP1pAd-17" vertex="1"><mxGeometry y="442" width="320" height="8" as="geometry"/></mxCell><mxCell id="OYpLQ3D31SUY-RjP1pAd-29" value="+ override Update(): void" style="text;strokeColor=none;fillColor=none;align=left;verticalAlign=top;spacingLeft=4;spacingRight=4;overflow=hidden;rotatable=0;points=[[0,0.5],[1,0.5]];portConstraint=eastwest;" parent="OYpLQ3D31SUY-RjP1pAd-17" vertex="1"><mxGeometry y="450" width="320" height="26" as="geometry"/></mxCell><mxCell id="abBTHbhudsCi1P9fZVan-165" value="- CheckDeleteConstrains: bool" style="text;strokeColor=none;fillColor=none;align=left;verticalAlign=top;spacingLeft=4;spacingRight=4;overflow=hidden;rotatable=0;points=[[0,0.5],[1,0.5]];portConstraint=eastwest;" parent="OYpLQ3D31SUY-RjP1pAd-17" vertex="1"><mxGeometry y="476" width="320" height="26" as="geometry"/></mxCell><mxCell id="OYpLQ3D31SUY-RjP1pAd-30" value="+ override Delete(): void" style="text;strokeColor=none;fillColor=none;align=left;verticalAlign=top;spacingLeft=4;spacingRight=4;overflow=hidden;rotatable=0;points=[[0,0.5],[1,0.5]];portConstraint=eastwest;" parent="OYpLQ3D31SUY-RjP1pAd-17" vertex="1"><mxGeometry y="502" width="320" height="26" as="geometry"/></mxCell><mxCell id="OYpLQ3D31SUY-RjP1pAd-31" value="+ override Alta(): void" style="text;strokeColor=none;fillColor=none;align=left;verticalAlign=top;spacingLeft=4;spacingRight=4;overflow=hidden;rotatable=0;points=[[0,0.5],[1,0.5]];portConstraint=eastwest;" parent="OYpLQ3D31SUY-RjP1pAd-17" vertex="1"><mxGeometry y="528" width="320" height="26" as="geometry"/></mxCell><mxCell id="OYpLQ3D31SUY-RjP1pAd-33" value="+ override NuevaAsistencia(): void" style="text;strokeColor=none;fillColor=none;align=left;verticalAlign=top;spacingLeft=4;spacingRight=4;overflow=hidden;rotatable=0;points=[[0,0.5],[1,0.5]];portConstraint=eastwest;" parent="OYpLQ3D31SUY-RjP1pAd-17" vertex="1"><mxGeometry y="554" width="320" height="26" as="geometry"/></mxCell><mxCell id="OYpLQ3D31SUY-RjP1pAd-34" value="+ Override Pago(decimal: cantidad): void" style="text;strokeColor=none;fillColor=none;align=left;verticalAlign=top;spacingLeft=4;spacingRight=4;overflow=hidden;rotatable=0;points=[[0,0.5],[1,0.5]];portConstraint=eastwest;" parent="OYpLQ3D31SUY-RjP1pAd-17" vertex="1"><mxGeometry y="580" width="320" height="26" as="geometry"/></mxCell><mxCell id="OYpLQ3D31SUY-RjP1pAd-32" value="+ override GetHorarioStr(): string" style="text;strokeColor=none;fillColor=none;align=left;verticalAlign=top;spacingLeft=4;spacingRight=4;overflow=hidden;rotatable=0;points=[[0,0.5],[1,0.5]];portConstraint=eastwest;" parent="OYpLQ3D31SUY-RjP1pAd-17" vertex="1"><mxGeometry y="606" width="320" height="26" as="geometry"/></mxCell><mxCell id="OYpLQ3D31SUY-RjP1pAd-35" value="Instructor" style="swimlane;fontStyle=1;align=center;verticalAlign=top;childLayout=stackLayout;horizontal=1;startSize=26;horizontalStack=0;resizeParent=1;resizeParentMax=0;resizeLast=0;collapsible=1;marginBottom=0;" parent="1" vertex="1"><mxGeometry x="1580" y="252" width="320" height="424" as="geometry"><mxRectangle x="360" y="298" width="90" height="26" as="alternateBounds"/></mxGeometry></mxCell><mxCell id="OYpLQ3D31SUY-RjP1pAd-38" value="+ HoraEntrada: datetime" style="text;strokeColor=none;fillColor=none;align=left;verticalAlign=top;spacingLeft=4;spacingRight=4;overflow=hidden;rotatable=0;points=[[0,0.5],[1,0.5]];portConstraint=eastwest;" parent="OYpLQ3D31SUY-RjP1pAd-35" vertex="1"><mxGeometry y="26" width="320" height="26" as="geometry"/></mxCell><mxCell id="OYpLQ3D31SUY-RjP1pAd-273" value="+ HoraSalida: datetime" style="text;strokeColor=none;fillColor=none;align=left;verticalAlign=top;spacingLeft=4;spacingRight=4;overflow=hidden;rotatable=0;points=[[0,0.5],[1,0.5]];portConstraint=eastwest;" parent="OYpLQ3D31SUY-RjP1pAd-35" vertex="1"><mxGeometry y="52" width="320" height="26" as="geometry"/></mxCell><mxCell id="OYpLQ3D31SUY-RjP1pAd-274" value="+ DiasATrabajar: int" style="text;strokeColor=none;fillColor=none;align=left;verticalAlign=top;spacingLeft=4;spacingRight=4;overflow=hidden;rotatable=0;points=[[0,0.5],[1,0.5]];portConstraint=eastwest;" parent="OYpLQ3D31SUY-RjP1pAd-35" vertex="1"><mxGeometry y="78" width="320" height="26" as="geometry"/></mxCell><mxCell id="OYpLQ3D31SUY-RjP1pAd-275" value="+ DiasTrabajados: int" style="text;strokeColor=none;fillColor=none;align=left;verticalAlign=top;spacingLeft=4;spacingRight=4;overflow=hidden;rotatable=0;points=[[0,0.5],[1,0.5]];portConstraint=eastwest;" parent="OYpLQ3D31SUY-RjP1pAd-35" vertex="1"><mxGeometry y="104" width="320" height="26" as="geometry"/></mxCell><mxCell id="OYpLQ3D31SUY-RjP1pAd-276" value="+ Sueldo: decimal" style="text;strokeColor=none;fillColor=none;align=left;verticalAlign=top;spacingLeft=4;spacingRight=4;overflow=hidden;rotatable=0;points=[[0,0.5],[1,0.5]];portConstraint=eastwest;" parent="OYpLQ3D31SUY-RjP1pAd-35" vertex="1"><mxGeometry y="130" width="320" height="26" as="geometry"/></mxCell><mxCell id="OYpLQ3D31SUY-RjP1pAd-39" value="+ SueldoDescontar: decimal" style="text;strokeColor=none;fillColor=none;align=left;verticalAlign=top;spacingLeft=4;spacingRight=4;overflow=hidden;rotatable=0;points=[[0,0.5],[1,0.5]];portConstraint=eastwest;" parent="OYpLQ3D31SUY-RjP1pAd-35" vertex="1"><mxGeometry y="156" width="320" height="26" as="geometry"/></mxCell><mxCell id="OYpLQ3D31SUY-RjP1pAd-36" value="+ TipoInstructor:int" style="text;strokeColor=none;fillColor=none;align=left;verticalAlign=top;spacingLeft=4;spacingRight=4;overflow=hidden;rotatable=0;points=[[0,0.5],[1,0.5]];portConstraint=eastwest;" parent="OYpLQ3D31SUY-RjP1pAd-35" vertex="1"><mxGeometry y="182" width="320" height="26" as="geometry"/></mxCell><mxCell id="OYpLQ3D31SUY-RjP1pAd-37" value="+ NombreTipoInstructor: string" style="text;strokeColor=none;fillColor=none;align=left;verticalAlign=top;spacingLeft=4;spacingRight=4;overflow=hidden;rotatable=0;points=[[0,0.5],[1,0.5]];portConstraint=eastwest;" parent="OYpLQ3D31SUY-RjP1pAd-35" vertex="1"><mxGeometry y="208" width="320" height="26" as="geometry"/></mxCell><mxCell id="OYpLQ3D31SUY-RjP1pAd-40" value="" style="line;strokeWidth=1;fillColor=none;align=left;verticalAlign=middle;spacingTop=-1;spacingLeft=3;spacingRight=3;rotatable=0;labelPosition=right;points=[];portConstraint=eastwest;" parent="OYpLQ3D31SUY-RjP1pAd-35" vertex="1"><mxGeometry y="234" width="320" height="8" as="geometry"/></mxCell><mxCell id="OYpLQ3D31SUY-RjP1pAd-41" value="+ override Update(): void" style="text;strokeColor=none;fillColor=none;align=left;verticalAlign=top;spacingLeft=4;spacingRight=4;overflow=hidden;rotatable=0;points=[[0,0.5],[1,0.5]];portConstraint=eastwest;" parent="OYpLQ3D31SUY-RjP1pAd-35" vertex="1"><mxGeometry y="242" width="320" height="26" as="geometry"/></mxCell><mxCell id="abBTHbhudsCi1P9fZVan-170" value="- CheckDeleteConstrains: bool" style="text;strokeColor=none;fillColor=none;align=left;verticalAlign=top;spacingLeft=4;spacingRight=4;overflow=hidden;rotatable=0;points=[[0,0.5],[1,0.5]];portConstraint=eastwest;" parent="OYpLQ3D31SUY-RjP1pAd-35" vertex="1"><mxGeometry y="268" width="320" height="26" as="geometry"/></mxCell><mxCell id="OYpLQ3D31SUY-RjP1pAd-42" value="+ override Delete(): void" style="text;strokeColor=none;fillColor=none;align=left;verticalAlign=top;spacingLeft=4;spacingRight=4;overflow=hidden;rotatable=0;points=[[0,0.5],[1,0.5]];portConstraint=eastwest;" parent="OYpLQ3D31SUY-RjP1pAd-35" vertex="1"><mxGeometry y="294" width="320" height="26" as="geometry"/></mxCell><mxCell id="OYpLQ3D31SUY-RjP1pAd-43" value="+ override Alta(): void" style="text;strokeColor=none;fillColor=none;align=left;verticalAlign=top;spacingLeft=4;spacingRight=4;overflow=hidden;rotatable=0;points=[[0,0.5],[1,0.5]];portConstraint=eastwest;" parent="OYpLQ3D31SUY-RjP1pAd-35" vertex="1"><mxGeometry y="320" width="320" height="26" as="geometry"/></mxCell><mxCell id="OYpLQ3D31SUY-RjP1pAd-46" value="+ override NuevaAsistencia(): void" style="text;strokeColor=none;fillColor=none;align=left;verticalAlign=top;spacingLeft=4;spacingRight=4;overflow=hidden;rotatable=0;points=[[0,0.5],[1,0.5]];portConstraint=eastwest;" parent="OYpLQ3D31SUY-RjP1pAd-35" vertex="1"><mxGeometry y="346" width="320" height="26" as="geometry"/></mxCell><mxCell id="OYpLQ3D31SUY-RjP1pAd-47" value="+ Override Pago(decimal: cantidad): void" style="text;strokeColor=none;fillColor=none;align=left;verticalAlign=top;spacingLeft=4;spacingRight=4;overflow=hidden;rotatable=0;points=[[0,0.5],[1,0.5]];portConstraint=eastwest;" parent="OYpLQ3D31SUY-RjP1pAd-35" vertex="1"><mxGeometry y="372" width="320" height="26" as="geometry"/></mxCell><mxCell id="OYpLQ3D31SUY-RjP1pAd-287" value="+ override GetHorarioStr(): string" style="text;strokeColor=none;fillColor=none;align=left;verticalAlign=top;spacingLeft=4;spacingRight=4;overflow=hidden;rotatable=0;points=[[0,0.5],[1,0.5]];portConstraint=eastwest;" parent="OYpLQ3D31SUY-RjP1pAd-35" vertex="1"><mxGeometry y="398" width="320" height="26" as="geometry"/></mxCell><mxCell id="OYpLQ3D31SUY-RjP1pAd-59" value="TipoCliente" style="swimlane;fontStyle=1;align=center;verticalAlign=top;childLayout=stackLayout;horizontal=1;startSize=30;horizontalStack=0;resizeParent=1;resizeParentMax=0;resizeLast=0;collapsible=1;marginBottom=0;" parent="1" vertex="1"><mxGeometry x="1230" y="-278" width="200" height="142" as="geometry"/></mxCell><mxCell id="OYpLQ3D31SUY-RjP1pAd-60" value="+ IdTipo: int" style="text;strokeColor=none;fillColor=none;align=left;verticalAlign=top;spacingLeft=4;spacingRight=4;overflow=hidden;rotatable=0;points=[[0,0.5],[1,0.5]];portConstraint=eastwest;" parent="OYpLQ3D31SUY-RjP1pAd-59" vertex="1"><mxGeometry y="30" width="200" height="26" as="geometry"/></mxCell><mxCell id="OYpLQ3D31SUY-RjP1pAd-61" value="+ NombreTipo: string" style="text;strokeColor=none;fillColor=none;align=left;verticalAlign=top;spacingLeft=4;spacingRight=4;overflow=hidden;rotatable=0;points=[[0,0.5],[1,0.5]];portConstraint=eastwest;" parent="OYpLQ3D31SUY-RjP1pAd-59" vertex="1"><mxGeometry y="56" width="200" height="26" as="geometry"/></mxCell><mxCell id="OYpLQ3D31SUY-RjP1pAd-62" value="+ DescripcionTipo: string" style="text;strokeColor=none;fillColor=none;align=left;verticalAlign=top;spacingLeft=4;spacingRight=4;overflow=hidden;rotatable=0;points=[[0,0.5],[1,0.5]];portConstraint=eastwest;" parent="OYpLQ3D31SUY-RjP1pAd-59" vertex="1"><mxGeometry y="82" width="200" height="26" as="geometry"/></mxCell><mxCell id="OYpLQ3D31SUY-RjP1pAd-63" value="" style="line;strokeWidth=1;fillColor=none;align=left;verticalAlign=middle;spacingTop=-1;spacingLeft=3;spacingRight=3;rotatable=0;labelPosition=right;points=[];portConstraint=eastwest;" parent="OYpLQ3D31SUY-RjP1pAd-59" vertex="1"><mxGeometry y="108" width="200" height="8" as="geometry"/></mxCell><mxCell id="OYpLQ3D31SUY-RjP1pAd-64" value="+ " style="text;strokeColor=none;fillColor=none;align=left;verticalAlign=top;spacingLeft=4;spacingRight=4;overflow=hidden;rotatable=0;points=[[0,0.5],[1,0.5]];portConstraint=eastwest;" parent="OYpLQ3D31SUY-RjP1pAd-59" vertex="1"><mxGeometry y="116" width="200" height="26" as="geometry"/></mxCell><mxCell id="OYpLQ3D31SUY-RjP1pAd-65" value="Horario" style="swimlane;fontStyle=1;align=center;verticalAlign=top;childLayout=stackLayout;horizontal=1;startSize=26;horizontalStack=0;resizeParent=1;resizeParentMax=0;resizeLast=0;collapsible=1;marginBottom=0;" parent="1" vertex="1"><mxGeometry x="2690" y="-521" width="240" height="320" as="geometry"/></mxCell><mxCell id="OYpLQ3D31SUY-RjP1pAd-66" value="+ IdHorario: int" style="text;strokeColor=none;fillColor=none;align=left;verticalAlign=top;spacingLeft=4;spacingRight=4;overflow=hidden;rotatable=0;points=[[0,0.5],[1,0.5]];portConstraint=eastwest;" parent="OYpLQ3D31SUY-RjP1pAd-65" vertex="1"><mxGeometry y="26" width="240" height="26" as="geometry"/></mxCell><mxCell id="OYpLQ3D31SUY-RjP1pAd-67" value="+ IdClase: int" style="text;strokeColor=none;fillColor=none;align=left;verticalAlign=top;spacingLeft=4;spacingRight=4;overflow=hidden;rotatable=0;points=[[0,0.5],[1,0.5]];portConstraint=eastwest;" parent="OYpLQ3D31SUY-RjP1pAd-65" vertex="1"><mxGeometry y="52" width="240" height="26" as="geometry"/></mxCell><mxCell id="OYpLQ3D31SUY-RjP1pAd-68" value="+ Dia: Dias" style="text;strokeColor=none;fillColor=none;align=left;verticalAlign=top;spacingLeft=4;spacingRight=4;overflow=hidden;rotatable=0;points=[[0,0.5],[1,0.5]];portConstraint=eastwest;" parent="OYpLQ3D31SUY-RjP1pAd-65" vertex="1"><mxGeometry y="78" width="240" height="26" as="geometry"/></mxCell><mxCell id="OYpLQ3D31SUY-RjP1pAd-69" value="+ HoraInicio: TimeSpan" style="text;strokeColor=none;fillColor=none;align=left;verticalAlign=top;spacingLeft=4;spacingRight=4;overflow=hidden;rotatable=0;points=[[0,0.5],[1,0.5]];portConstraint=eastwest;" parent="OYpLQ3D31SUY-RjP1pAd-65" vertex="1"><mxGeometry y="104" width="240" height="26" as="geometry"/></mxCell><mxCell id="OYpLQ3D31SUY-RjP1pAd-70" value="+ HoraFin: TimeSpan" style="text;strokeColor=none;fillColor=none;align=left;verticalAlign=top;spacingLeft=4;spacingRight=4;overflow=hidden;rotatable=0;points=[[0,0.5],[1,0.5]];portConstraint=eastwest;" parent="OYpLQ3D31SUY-RjP1pAd-65" vertex="1"><mxGeometry y="130" width="240" height="26" as="geometry"/></mxCell><mxCell id="OYpLQ3D31SUY-RjP1pAd-71" value="+ CupoActual: int" style="text;strokeColor=none;fillColor=none;align=left;verticalAlign=top;spacingLeft=4;spacingRight=4;overflow=hidden;rotatable=0;points=[[0,0.5],[1,0.5]];portConstraint=eastwest;" parent="OYpLQ3D31SUY-RjP1pAd-65" vertex="1"><mxGeometry y="156" width="240" height="26" as="geometry"/></mxCell><mxCell id="OYpLQ3D31SUY-RjP1pAd-72" value="" style="line;strokeWidth=1;fillColor=none;align=left;verticalAlign=middle;spacingTop=-1;spacingLeft=3;spacingRight=3;rotatable=0;labelPosition=right;points=[];portConstraint=eastwest;" parent="OYpLQ3D31SUY-RjP1pAd-65" vertex="1"><mxGeometry y="182" width="240" height="8" as="geometry"/></mxCell><mxCell id="P3IwJ0CeBcSDWGgDDLUP-190" value="+ override Update(): void" style="text;strokeColor=none;fillColor=none;align=left;verticalAlign=top;spacingLeft=4;spacingRight=4;overflow=hidden;rotatable=0;points=[[0,0.5],[1,0.5]];portConstraint=eastwest;" parent="OYpLQ3D31SUY-RjP1pAd-65" vertex="1"><mxGeometry y="190" width="240" height="26" as="geometry"/></mxCell><mxCell id="P3IwJ0CeBcSDWGgDDLUP-189" value="+ override Alta(): void" style="text;strokeColor=none;fillColor=none;align=left;verticalAlign=top;spacingLeft=4;spacingRight=4;overflow=hidden;rotatable=0;points=[[0,0.5],[1,0.5]];portConstraint=eastwest;" parent="OYpLQ3D31SUY-RjP1pAd-65" vertex="1"><mxGeometry y="216" width="240" height="26" as="geometry"/></mxCell><mxCell id="P3IwJ0CeBcSDWGgDDLUP-188" value="+ override Delete(): void" style="text;strokeColor=none;fillColor=none;align=left;verticalAlign=top;spacingLeft=4;spacingRight=4;overflow=hidden;rotatable=0;points=[[0,0.5],[1,0.5]];portConstraint=eastwest;" parent="OYpLQ3D31SUY-RjP1pAd-65" vertex="1"><mxGeometry y="242" width="240" height="26" as="geometry"/></mxCell><mxCell id="OYpLQ3D31SUY-RjP1pAd-73" value="+ NuevaAsistnecia(): void" style="text;strokeColor=none;fillColor=none;align=left;verticalAlign=top;spacingLeft=4;spacingRight=4;overflow=hidden;rotatable=0;points=[[0,0.5],[1,0.5]];portConstraint=eastwest;" parent="OYpLQ3D31SUY-RjP1pAd-65" vertex="1"><mxGeometry y="268" width="240" height="26" as="geometry"/></mxCell><mxCell id="OYpLQ3D31SUY-RjP1pAd-74" value="+ ResetAsitencia(): void" style="text;strokeColor=none;fillColor=none;align=left;verticalAlign=top;spacingLeft=4;spacingRight=4;overflow=hidden;rotatable=0;points=[[0,0.5],[1,0.5]];portConstraint=eastwest;" parent="OYpLQ3D31SUY-RjP1pAd-65" vertex="1"><mxGeometry y="294" width="240" height="26" as="geometry"/></mxCell><mxCell id="OYpLQ3D31SUY-RjP1pAd-75" value="&lt;&lt;Enum&gt;&gt;&#10;Dias" style="swimlane;fontStyle=0;childLayout=stackLayout;horizontal=1;startSize=30;horizontalStack=0;resizeParent=1;resizeParentMax=0;resizeLast=0;collapsible=1;marginBottom=0;" parent="1" vertex="1"><mxGeometry x="2980" y="-476" width="190" height="212" as="geometry"/></mxCell><mxCell id="OYpLQ3D31SUY-RjP1pAd-76" value="Lunes" style="text;strokeColor=none;fillColor=none;align=left;verticalAlign=top;spacingLeft=4;spacingRight=4;overflow=hidden;rotatable=0;points=[[0,0.5],[1,0.5]];portConstraint=eastwest;" parent="OYpLQ3D31SUY-RjP1pAd-75" vertex="1"><mxGeometry y="30" width="190" height="26" as="geometry"/></mxCell><mxCell id="OYpLQ3D31SUY-RjP1pAd-77" value="Martes" style="text;strokeColor=none;fillColor=none;align=left;verticalAlign=top;spacingLeft=4;spacingRight=4;overflow=hidden;rotatable=0;points=[[0,0.5],[1,0.5]];portConstraint=eastwest;" parent="OYpLQ3D31SUY-RjP1pAd-75" vertex="1"><mxGeometry y="56" width="190" height="26" as="geometry"/></mxCell><mxCell id="OYpLQ3D31SUY-RjP1pAd-78" value="Miercoles" style="text;strokeColor=none;fillColor=none;align=left;verticalAlign=top;spacingLeft=4;spacingRight=4;overflow=hidden;rotatable=0;points=[[0,0.5],[1,0.5]];portConstraint=eastwest;" parent="OYpLQ3D31SUY-RjP1pAd-75" vertex="1"><mxGeometry y="82" width="190" height="26" as="geometry"/></mxCell><mxCell id="OYpLQ3D31SUY-RjP1pAd-79" value="Jueves" style="text;strokeColor=none;fillColor=none;align=left;verticalAlign=top;spacingLeft=4;spacingRight=4;overflow=hidden;rotatable=0;points=[[0,0.5],[1,0.5]];portConstraint=eastwest;" parent="OYpLQ3D31SUY-RjP1pAd-75" vertex="1"><mxGeometry y="108" width="190" height="26" as="geometry"/></mxCell><mxCell id="OYpLQ3D31SUY-RjP1pAd-80" value="Viernes" style="text;strokeColor=none;fillColor=none;align=left;verticalAlign=top;spacingLeft=4;spacingRight=4;overflow=hidden;rotatable=0;points=[[0,0.5],[1,0.5]];portConstraint=eastwest;" parent="OYpLQ3D31SUY-RjP1pAd-75" vertex="1"><mxGeometry y="134" width="190" height="26" as="geometry"/></mxCell><mxCell id="OYpLQ3D31SUY-RjP1pAd-81" value="Sabado" style="text;strokeColor=none;fillColor=none;align=left;verticalAlign=top;spacingLeft=4;spacingRight=4;overflow=hidden;rotatable=0;points=[[0,0.5],[1,0.5]];portConstraint=eastwest;" parent="OYpLQ3D31SUY-RjP1pAd-75" vertex="1"><mxGeometry y="160" width="190" height="26" as="geometry"/></mxCell><mxCell id="OYpLQ3D31SUY-RjP1pAd-82" value="Domingo" style="text;strokeColor=none;fillColor=none;align=left;verticalAlign=top;spacingLeft=4;spacingRight=4;overflow=hidden;rotatable=0;points=[[0,0.5],[1,0.5]];portConstraint=eastwest;" parent="OYpLQ3D31SUY-RjP1pAd-75" vertex="1"><mxGeometry y="186" width="190" height="26" as="geometry"/></mxCell><mxCell id="OYpLQ3D31SUY-RjP1pAd-83" value="Clase" style="swimlane;fontStyle=1;align=center;verticalAlign=top;childLayout=stackLayout;horizontal=1;startSize=26;horizontalStack=0;resizeParent=1;resizeParentMax=0;resizeLast=0;collapsible=1;marginBottom=0;" parent="1" vertex="1"><mxGeometry x="2360" y="-560" width="280" height="424" as="geometry"><mxRectangle x="2320" y="40" width="60" height="26" as="alternateBounds"/></mxGeometry></mxCell><mxCell id="OYpLQ3D31SUY-RjP1pAd-84" value="+ IdClase: int" style="text;strokeColor=none;fillColor=none;align=left;verticalAlign=top;spacingLeft=4;spacingRight=4;overflow=hidden;rotatable=0;points=[[0,0.5],[1,0.5]];portConstraint=eastwest;" parent="OYpLQ3D31SUY-RjP1pAd-83" vertex="1"><mxGeometry y="26" width="280" height="26" as="geometry"/></mxCell><mxCell id="OYpLQ3D31SUY-RjP1pAd-85" value="+ Nombre: string" style="text;strokeColor=none;fillColor=none;align=left;verticalAlign=top;spacingLeft=4;spacingRight=4;overflow=hidden;rotatable=0;points=[[0,0.5],[1,0.5]];portConstraint=eastwest;" parent="OYpLQ3D31SUY-RjP1pAd-83" vertex="1"><mxGeometry y="52" width="280" height="26" as="geometry"/></mxCell><mxCell id="OYpLQ3D31SUY-RjP1pAd-86" value="+ Descripcion: string" style="text;strokeColor=none;fillColor=none;align=left;verticalAlign=top;spacingLeft=4;spacingRight=4;overflow=hidden;rotatable=0;points=[[0,0.5],[1,0.5]];portConstraint=eastwest;" parent="OYpLQ3D31SUY-RjP1pAd-83" vertex="1"><mxGeometry y="78" width="280" height="26" as="geometry"/></mxCell><mxCell id="OYpLQ3D31SUY-RjP1pAd-87" value="+ IdInstructor: int" style="text;strokeColor=none;fillColor=none;align=left;verticalAlign=top;spacingLeft=4;spacingRight=4;overflow=hidden;rotatable=0;points=[[0,0.5],[1,0.5]];portConstraint=eastwest;" parent="OYpLQ3D31SUY-RjP1pAd-83" vertex="1"><mxGeometry y="104" width="280" height="26" as="geometry"/></mxCell><mxCell id="OYpLQ3D31SUY-RjP1pAd-88" value="+ NombreInstructor: string" style="text;strokeColor=none;fillColor=none;align=left;verticalAlign=top;spacingLeft=4;spacingRight=4;overflow=hidden;rotatable=0;points=[[0,0.5],[1,0.5]];portConstraint=eastwest;" parent="OYpLQ3D31SUY-RjP1pAd-83" vertex="1"><mxGeometry y="130" width="280" height="26" as="geometry"/></mxCell><mxCell id="OYpLQ3D31SUY-RjP1pAd-89" value="+ CupoMaximo: int" style="text;strokeColor=none;fillColor=none;align=left;verticalAlign=top;spacingLeft=4;spacingRight=4;overflow=hidden;rotatable=0;points=[[0,0.5],[1,0.5]];portConstraint=eastwest;" parent="OYpLQ3D31SUY-RjP1pAd-83" vertex="1"><mxGeometry y="156" width="280" height="26" as="geometry"/></mxCell><mxCell id="OYpLQ3D31SUY-RjP1pAd-90" value="+ IdEspacio: int" style="text;strokeColor=none;fillColor=none;align=left;verticalAlign=top;spacingLeft=4;spacingRight=4;overflow=hidden;rotatable=0;points=[[0,0.5],[1,0.5]];portConstraint=eastwest;" parent="OYpLQ3D31SUY-RjP1pAd-83" vertex="1"><mxGeometry y="182" width="280" height="26" as="geometry"/></mxCell><mxCell id="OYpLQ3D31SUY-RjP1pAd-91" value="+ NombreEspacio: string" style="text;strokeColor=none;fillColor=none;align=left;verticalAlign=top;spacingLeft=4;spacingRight=4;overflow=hidden;rotatable=0;points=[[0,0.5],[1,0.5]];portConstraint=eastwest;" parent="OYpLQ3D31SUY-RjP1pAd-83" vertex="1"><mxGeometry y="208" width="280" height="26" as="geometry"/></mxCell><mxCell id="OYpLQ3D31SUY-RjP1pAd-92" value="+ Activo: bool" style="text;strokeColor=none;fillColor=none;align=left;verticalAlign=top;spacingLeft=4;spacingRight=4;overflow=hidden;rotatable=0;points=[[0,0.5],[1,0.5]];portConstraint=eastwest;" parent="OYpLQ3D31SUY-RjP1pAd-83" vertex="1"><mxGeometry y="234" width="280" height="26" as="geometry"/></mxCell><mxCell id="HmQ8k9gzMqxAlb5C0-Fg-167" value="+ IdPaquete: int" style="text;strokeColor=none;fillColor=none;align=left;verticalAlign=top;spacingLeft=4;spacingRight=4;overflow=hidden;rotatable=0;points=[[0,0.5],[1,0.5]];portConstraint=eastwest;" parent="OYpLQ3D31SUY-RjP1pAd-83" vertex="1"><mxGeometry y="260" width="280" height="26" as="geometry"/></mxCell><mxCell id="HmQ8k9gzMqxAlb5C0-Fg-168" value="+ NombrePaquete: string" style="text;strokeColor=none;fillColor=none;align=left;verticalAlign=top;spacingLeft=4;spacingRight=4;overflow=hidden;rotatable=0;points=[[0,0.5],[1,0.5]];portConstraint=eastwest;" parent="OYpLQ3D31SUY-RjP1pAd-83" vertex="1"><mxGeometry y="286" width="280" height="26" as="geometry"/></mxCell><mxCell id="OYpLQ3D31SUY-RjP1pAd-93" value="" style="line;strokeWidth=1;fillColor=none;align=left;verticalAlign=middle;spacingTop=-1;spacingLeft=3;spacingRight=3;rotatable=0;labelPosition=right;points=[];portConstraint=eastwest;" parent="OYpLQ3D31SUY-RjP1pAd-83" vertex="1"><mxGeometry y="312" width="280" height="8" as="geometry"/></mxCell><mxCell id="P3IwJ0CeBcSDWGgDDLUP-186" value="+ override Alta(): void" style="text;strokeColor=none;fillColor=none;align=left;verticalAlign=top;spacingLeft=4;spacingRight=4;overflow=hidden;rotatable=0;points=[[0,0.5],[1,0.5]];portConstraint=eastwest;" parent="OYpLQ3D31SUY-RjP1pAd-83" vertex="1"><mxGeometry y="320" width="280" height="26" as="geometry"/></mxCell><mxCell id="abBTHbhudsCi1P9fZVan-169" value="- CheckDeleteConstrains: bool" style="text;strokeColor=none;fillColor=none;align=left;verticalAlign=top;spacingLeft=4;spacingRight=4;overflow=hidden;rotatable=0;points=[[0,0.5],[1,0.5]];portConstraint=eastwest;" parent="OYpLQ3D31SUY-RjP1pAd-83" vertex="1"><mxGeometry y="346" width="280" height="26" as="geometry"/></mxCell><mxCell id="P3IwJ0CeBcSDWGgDDLUP-187" value="+ override Delete(): void" style="text;strokeColor=none;fillColor=none;align=left;verticalAlign=top;spacingLeft=4;spacingRight=4;overflow=hidden;rotatable=0;points=[[0,0.5],[1,0.5]];portConstraint=eastwest;" parent="OYpLQ3D31SUY-RjP1pAd-83" vertex="1"><mxGeometry y="372" width="280" height="26" as="geometry"/></mxCell><mxCell id="P3IwJ0CeBcSDWGgDDLUP-185" value="+ override Update(): void" style="text;strokeColor=none;fillColor=none;align=left;verticalAlign=top;spacingLeft=4;spacingRight=4;overflow=hidden;rotatable=0;points=[[0,0.5],[1,0.5]];portConstraint=eastwest;" parent="OYpLQ3D31SUY-RjP1pAd-83" vertex="1"><mxGeometry y="398" width="280" height="26" as="geometry"/></mxCell><mxCell id="OYpLQ3D31SUY-RjP1pAd-98" value="Espacio" style="swimlane;fontStyle=1;align=center;verticalAlign=top;childLayout=stackLayout;horizontal=1;startSize=26;horizontalStack=0;resizeParent=1;resizeParentMax=0;resizeLast=0;collapsible=1;marginBottom=0;" parent="1" vertex="1"><mxGeometry x="1930" y="-160" width="190" height="216" as="geometry"/></mxCell><mxCell id="OYpLQ3D31SUY-RjP1pAd-99" value="+ IdEspacio: int" style="text;strokeColor=none;fillColor=none;align=left;verticalAlign=top;spacingLeft=4;spacingRight=4;overflow=hidden;rotatable=0;points=[[0,0.5],[1,0.5]];portConstraint=eastwest;" parent="OYpLQ3D31SUY-RjP1pAd-98" vertex="1"><mxGeometry y="26" width="190" height="26" as="geometry"/></mxCell><mxCell id="OYpLQ3D31SUY-RjP1pAd-100" value="+ NombreEspacio: string" style="text;strokeColor=none;fillColor=none;align=left;verticalAlign=top;spacingLeft=4;spacingRight=4;overflow=hidden;rotatable=0;points=[[0,0.5],[1,0.5]];portConstraint=eastwest;" parent="OYpLQ3D31SUY-RjP1pAd-98" vertex="1"><mxGeometry y="52" width="190" height="26" as="geometry"/></mxCell><mxCell id="OYpLQ3D31SUY-RjP1pAd-101" value="+ Descripcion: string" style="text;strokeColor=none;fillColor=none;align=left;verticalAlign=top;spacingLeft=4;spacingRight=4;overflow=hidden;rotatable=0;points=[[0,0.5],[1,0.5]];portConstraint=eastwest;" parent="OYpLQ3D31SUY-RjP1pAd-98" vertex="1"><mxGeometry y="78" width="190" height="26" as="geometry"/></mxCell><mxCell id="OYpLQ3D31SUY-RjP1pAd-102" value="" style="line;strokeWidth=1;fillColor=none;align=left;verticalAlign=middle;spacingTop=-1;spacingLeft=3;spacingRight=3;rotatable=0;labelPosition=right;points=[];portConstraint=eastwest;" parent="OYpLQ3D31SUY-RjP1pAd-98" vertex="1"><mxGeometry y="104" width="190" height="8" as="geometry"/></mxCell><mxCell id="OYpLQ3D31SUY-RjP1pAd-103" value="+ Update: Task&lt;int&gt;" style="text;strokeColor=none;fillColor=none;align=left;verticalAlign=top;spacingLeft=4;spacingRight=4;overflow=hidden;rotatable=0;points=[[0,0.5],[1,0.5]];portConstraint=eastwest;" parent="OYpLQ3D31SUY-RjP1pAd-98" vertex="1"><mxGeometry y="112" width="190" height="26" as="geometry"/></mxCell><mxCell id="abBTHbhudsCi1P9fZVan-167" value="- CheckDeleteConstrains: bool" style="text;strokeColor=none;fillColor=none;align=left;verticalAlign=top;spacingLeft=4;spacingRight=4;overflow=hidden;rotatable=0;points=[[0,0.5],[1,0.5]];portConstraint=eastwest;" parent="OYpLQ3D31SUY-RjP1pAd-98" vertex="1"><mxGeometry y="138" width="190" height="26" as="geometry"/></mxCell><mxCell id="OYpLQ3D31SUY-RjP1pAd-104" value="+ Delete(): Task&lt;Int&gt;" style="text;strokeColor=none;fillColor=none;align=left;verticalAlign=top;spacingLeft=4;spacingRight=4;overflow=hidden;rotatable=0;points=[[0,0.5],[1,0.5]];portConstraint=eastwest;" parent="OYpLQ3D31SUY-RjP1pAd-98" vertex="1"><mxGeometry y="164" width="190" height="26" as="geometry"/></mxCell><mxCell id="OYpLQ3D31SUY-RjP1pAd-105" value="+ Update(): Task&lt;Int&gt;" style="text;strokeColor=none;fillColor=none;align=left;verticalAlign=top;spacingLeft=4;spacingRight=4;overflow=hidden;rotatable=0;points=[[0,0.5],[1,0.5]];portConstraint=eastwest;" parent="OYpLQ3D31SUY-RjP1pAd-98" vertex="1"><mxGeometry y="190" width="190" height="26" as="geometry"/></mxCell><mxCell id="OYpLQ3D31SUY-RjP1pAd-107" value="Usuario" style="swimlane;fontStyle=1;align=center;verticalAlign=top;childLayout=stackLayout;horizontal=1;startSize=26;horizontalStack=0;resizeParent=1;resizeParentMax=0;resizeLast=0;collapsible=1;marginBottom=0;" parent="1" vertex="1"><mxGeometry x="1680" y="737" width="200" height="242" as="geometry"><mxRectangle x="360" y="298" width="90" height="26" as="alternateBounds"/></mxGeometry></mxCell><mxCell id="4" value="+ FechaUltimoAcceso: datetime" style="text;strokeColor=none;fillColor=none;align=left;verticalAlign=top;spacingLeft=4;spacingRight=4;overflow=hidden;rotatable=0;points=[[0,0.5],[1,0.5]];portConstraint=eastwest;" parent="OYpLQ3D31SUY-RjP1pAd-107" vertex="1"><mxGeometry y="26" width="200" height="26" as="geometry"/></mxCell><mxCell id="166" value="+ FechaUltimoPago: datetime" style="text;strokeColor=none;fillColor=none;align=left;verticalAlign=top;spacingLeft=4;spacingRight=4;overflow=hidden;rotatable=0;points=[[0,0.5],[1,0.5]];portConstraint=eastwest;" parent="OYpLQ3D31SUY-RjP1pAd-107" vertex="1"><mxGeometry y="52" width="200" height="26" as="geometry"/></mxCell><mxCell id="167" value="+ MontoUltimoPago: decimal" style="text;strokeColor=none;fillColor=none;align=left;verticalAlign=top;spacingLeft=4;spacingRight=4;overflow=hidden;rotatable=0;points=[[0,0.5],[1,0.5]];portConstraint=eastwest;" parent="OYpLQ3D31SUY-RjP1pAd-107" vertex="1"><mxGeometry y="78" width="200" height="26" as="geometry"/></mxCell><mxCell id="OYpLQ3D31SUY-RjP1pAd-108" value="+ Username: string" style="text;strokeColor=none;fillColor=none;align=left;verticalAlign=top;spacingLeft=4;spacingRight=4;overflow=hidden;rotatable=0;points=[[0,0.5],[1,0.5]];portConstraint=eastwest;" parent="OYpLQ3D31SUY-RjP1pAd-107" vertex="1"><mxGeometry y="104" width="200" height="26" as="geometry"/></mxCell><mxCell id="OYpLQ3D31SUY-RjP1pAd-109" value="+ Password: string" style="text;strokeColor=none;fillColor=none;align=left;verticalAlign=top;spacingLeft=4;spacingRight=4;overflow=hidden;rotatable=0;points=[[0,0.5],[1,0.5]];portConstraint=eastwest;" parent="OYpLQ3D31SUY-RjP1pAd-107" vertex="1"><mxGeometry y="130" width="200" height="26" as="geometry"/></mxCell><mxCell id="OYpLQ3D31SUY-RjP1pAd-110" value="" style="line;strokeWidth=1;fillColor=none;align=left;verticalAlign=middle;spacingTop=-1;spacingLeft=3;spacingRight=3;rotatable=0;labelPosition=right;points=[];portConstraint=eastwest;" parent="OYpLQ3D31SUY-RjP1pAd-107" vertex="1"><mxGeometry y="156" width="200" height="8" as="geometry"/></mxCell><mxCell id="OYpLQ3D31SUY-RjP1pAd-111" value="+ override Update(): void" style="text;strokeColor=none;fillColor=none;align=left;verticalAlign=top;spacingLeft=4;spacingRight=4;overflow=hidden;rotatable=0;points=[[0,0.5],[1,0.5]];portConstraint=eastwest;" parent="OYpLQ3D31SUY-RjP1pAd-107" vertex="1"><mxGeometry y="164" width="200" height="26" as="geometry"/></mxCell><mxCell id="OYpLQ3D31SUY-RjP1pAd-112" value="+ override Delete(): void" style="text;strokeColor=none;fillColor=none;align=left;verticalAlign=top;spacingLeft=4;spacingRight=4;overflow=hidden;rotatable=0;points=[[0,0.5],[1,0.5]];portConstraint=eastwest;" parent="OYpLQ3D31SUY-RjP1pAd-107" vertex="1"><mxGeometry y="190" width="200" height="26" as="geometry"/></mxCell><mxCell id="OYpLQ3D31SUY-RjP1pAd-113" value="+ override Alta(): void" style="text;strokeColor=none;fillColor=none;align=left;verticalAlign=top;spacingLeft=4;spacingRight=4;overflow=hidden;rotatable=0;points=[[0,0.5],[1,0.5]];portConstraint=eastwest;" parent="OYpLQ3D31SUY-RjP1pAd-107" vertex="1"><mxGeometry y="216" width="200" height="26" as="geometry"/></mxCell><mxCell id="OYpLQ3D31SUY-RjP1pAd-114" value="" style="endArrow=block;dashed=1;endFill=0;endSize=12;html=1;rounded=0;edgeStyle=orthogonalEdgeStyle;" parent="1" source="OYpLQ3D31SUY-RjP1pAd-107" target="OYpLQ3D31SUY-RjP1pAd-1" edge="1"><mxGeometry width="160" relative="1" as="geometry"><mxPoint x="1520" y="532" as="sourcePoint"/><mxPoint x="1680" y="532" as="targetPoint"/><Array as="points"/></mxGeometry></mxCell><mxCell id="OYpLQ3D31SUY-RjP1pAd-115" value="ClienteRenta" style="swimlane;fontStyle=1;align=center;verticalAlign=top;childLayout=stackLayout;horizontal=1;startSize=26;horizontalStack=0;resizeParent=1;resizeParentMax=0;resizeLast=0;collapsible=1;marginBottom=0;" parent="1" vertex="1"><mxGeometry x="1920" y="912" width="190" height="242" as="geometry"><mxRectangle x="360" y="298" width="90" height="26" as="alternateBounds"/></mxGeometry></mxCell><mxCell id="OYpLQ3D31SUY-RjP1pAd-116" value="+ DeudaCliente: decimal" style="text;strokeColor=none;fillColor=none;align=left;verticalAlign=top;spacingLeft=4;spacingRight=4;overflow=hidden;rotatable=0;points=[[0,0.5],[1,0.5]];portConstraint=eastwest;" parent="OYpLQ3D31SUY-RjP1pAd-115" vertex="1"><mxGeometry y="26" width="190" height="26" as="geometry"/></mxCell><mxCell id="5" value="+ IdRenta: string" style="text;strokeColor=none;fillColor=none;align=left;verticalAlign=top;spacingLeft=4;spacingRight=4;overflow=hidden;rotatable=0;points=[[0,0.5],[1,0.5]];portConstraint=eastwest;" parent="OYpLQ3D31SUY-RjP1pAd-115" vertex="1"><mxGeometry y="52" width="190" height="26" as="geometry"/></mxCell><mxCell id="6" value="+ FechaRenta: string" style="text;strokeColor=none;fillColor=none;align=left;verticalAlign=top;spacingLeft=4;spacingRight=4;overflow=hidden;rotatable=0;points=[[0,0.5],[1,0.5]];portConstraint=eastwest;" parent="OYpLQ3D31SUY-RjP1pAd-115" vertex="1"><mxGeometry y="78" width="190" height="26" as="geometry"/></mxCell><mxCell id="7" value="+ CostoRenta: string" style="text;strokeColor=none;fillColor=none;align=left;verticalAlign=top;spacingLeft=4;spacingRight=4;overflow=hidden;rotatable=0;points=[[0,0.5],[1,0.5]];portConstraint=eastwest;" parent="OYpLQ3D31SUY-RjP1pAd-115" vertex="1"><mxGeometry y="104" width="190" height="26" as="geometry"/></mxCell><mxCell id="OYpLQ3D31SUY-RjP1pAd-117" value="" style="line;strokeWidth=1;fillColor=none;align=left;verticalAlign=middle;spacingTop=-1;spacingLeft=3;spacingRight=3;rotatable=0;labelPosition=right;points=[];portConstraint=eastwest;" parent="OYpLQ3D31SUY-RjP1pAd-115" vertex="1"><mxGeometry y="130" width="190" height="8" as="geometry"/></mxCell><mxCell id="OYpLQ3D31SUY-RjP1pAd-118" value="+ override Update(): void" style="text;strokeColor=none;fillColor=none;align=left;verticalAlign=top;spacingLeft=4;spacingRight=4;overflow=hidden;rotatable=0;points=[[0,0.5],[1,0.5]];portConstraint=eastwest;" parent="OYpLQ3D31SUY-RjP1pAd-115" vertex="1"><mxGeometry y="138" width="190" height="26" as="geometry"/></mxCell><mxCell id="OYpLQ3D31SUY-RjP1pAd-119" value="+ override Delete(): void" style="text;strokeColor=none;fillColor=none;align=left;verticalAlign=top;spacingLeft=4;spacingRight=4;overflow=hidden;rotatable=0;points=[[0,0.5],[1,0.5]];portConstraint=eastwest;" parent="OYpLQ3D31SUY-RjP1pAd-115" vertex="1"><mxGeometry y="164" width="190" height="26" as="geometry"/></mxCell><mxCell id="OYpLQ3D31SUY-RjP1pAd-120" value="+ override Alta(): void" style="text;strokeColor=none;fillColor=none;align=left;verticalAlign=top;spacingLeft=4;spacingRight=4;overflow=hidden;rotatable=0;points=[[0,0.5],[1,0.5]];portConstraint=eastwest;" parent="OYpLQ3D31SUY-RjP1pAd-115" vertex="1"><mxGeometry y="190" width="190" height="26" as="geometry"/></mxCell><mxCell id="OYpLQ3D31SUY-RjP1pAd-121" value="+ NuevaRenta(): bool" style="text;strokeColor=none;fillColor=none;align=left;verticalAlign=top;spacingLeft=4;spacingRight=4;overflow=hidden;rotatable=0;points=[[0,0.5],[1,0.5]];portConstraint=eastwest;" parent="OYpLQ3D31SUY-RjP1pAd-115" vertex="1"><mxGeometry y="216" width="190" height="26" as="geometry"/></mxCell><mxCell id="OYpLQ3D31SUY-RjP1pAd-122" value="" style="endArrow=block;dashed=1;endFill=0;endSize=12;html=1;rounded=0;edgeStyle=orthogonalEdgeStyle;" parent="1" source="OYpLQ3D31SUY-RjP1pAd-115" target="OYpLQ3D31SUY-RjP1pAd-1" edge="1"><mxGeometry width="160" relative="1" as="geometry"><mxPoint x="1500" y="612" as="sourcePoint"/><mxPoint x="1660" y="612" as="targetPoint"/><Array as="points"><mxPoint x="1300" y="972"/><mxPoint x="1300" y="810"/></Array></mxGeometry></mxCell><mxCell id="OYpLQ3D31SUY-RjP1pAd-134" value="Ingresos" style="swimlane;fontStyle=1;align=center;verticalAlign=top;childLayout=stackLayout;horizontal=1;startSize=30;horizontalStack=0;resizeParent=1;resizeParentMax=0;resizeLast=0;collapsible=1;marginBottom=0;" parent="1" vertex="1"><mxGeometry x="2610" y="-60" width="190" height="142" as="geometry"><mxRectangle x="40" y="660" width="140" height="40" as="alternateBounds"/></mxGeometry></mxCell><mxCell id="19" value="+ IdRenta: int" style="text;strokeColor=none;fillColor=none;align=left;verticalAlign=top;spacingLeft=4;spacingRight=4;overflow=hidden;rotatable=0;points=[[0,0.5],[1,0.5]];portConstraint=eastwest;" parent="OYpLQ3D31SUY-RjP1pAd-134" vertex="1"><mxGeometry y="30" width="190" height="26" as="geometry"/></mxCell><mxCell id="20" value="+ IdVenta: int" style="text;strokeColor=none;fillColor=none;align=left;verticalAlign=top;spacingLeft=4;spacingRight=4;overflow=hidden;rotatable=0;points=[[0,0.5],[1,0.5]];portConstraint=eastwest;" parent="OYpLQ3D31SUY-RjP1pAd-134" vertex="1"><mxGeometry y="56" width="190" height="26" as="geometry"/></mxCell><mxCell id="21" value="+ IdCliente: int" style="text;strokeColor=none;fillColor=none;align=left;verticalAlign=top;spacingLeft=4;spacingRight=4;overflow=hidden;rotatable=0;points=[[0,0.5],[1,0.5]];portConstraint=eastwest;" parent="OYpLQ3D31SUY-RjP1pAd-134" vertex="1"><mxGeometry y="82" width="190" height="26" as="geometry"/></mxCell><mxCell id="OYpLQ3D31SUY-RjP1pAd-138" value="" style="line;strokeWidth=1;fillColor=none;align=left;verticalAlign=middle;spacingTop=-1;spacingLeft=3;spacingRight=3;rotatable=0;labelPosition=right;points=[];portConstraint=eastwest;" parent="OYpLQ3D31SUY-RjP1pAd-134" vertex="1"><mxGeometry y="108" width="190" height="8" as="geometry"/></mxCell><mxCell id="OYpLQ3D31SUY-RjP1pAd-139" value="+ Alta(): void" style="text;strokeColor=none;fillColor=none;align=left;verticalAlign=top;spacingLeft=4;spacingRight=4;overflow=hidden;rotatable=0;points=[[0,0.5],[1,0.5]];portConstraint=eastwest;" parent="OYpLQ3D31SUY-RjP1pAd-134" vertex="1"><mxGeometry y="116" width="190" height="26" as="geometry"/></mxCell><mxCell id="OYpLQ3D31SUY-RjP1pAd-143" value="Pagos" style="swimlane;fontStyle=1;align=center;verticalAlign=top;childLayout=stackLayout;horizontal=1;startSize=30;horizontalStack=0;resizeParent=1;resizeParentMax=0;resizeLast=0;collapsible=1;marginBottom=0;" parent="1" vertex="1"><mxGeometry x="2610" y="130" width="190" height="168" as="geometry"><mxRectangle x="40" y="660" width="140" height="40" as="alternateBounds"/></mxGeometry></mxCell><mxCell id="11" value="+ Servicios: bool" style="text;strokeColor=none;fillColor=none;align=left;verticalAlign=top;spacingLeft=4;spacingRight=4;overflow=hidden;rotatable=0;points=[[0,0.5],[1,0.5]];portConstraint=eastwest;" parent="OYpLQ3D31SUY-RjP1pAd-143" vertex="1"><mxGeometry y="30" width="190" height="26" as="geometry"/></mxCell><mxCell id="12" value="+ Nomina: bool" style="text;strokeColor=none;fillColor=none;align=left;verticalAlign=top;spacingLeft=4;spacingRight=4;overflow=hidden;rotatable=0;points=[[0,0.5],[1,0.5]];portConstraint=eastwest;" parent="OYpLQ3D31SUY-RjP1pAd-143" vertex="1"><mxGeometry y="56" width="190" height="26" as="geometry"/></mxCell><mxCell id="14" value="+ IdUsuarioPagar: int" style="text;strokeColor=none;fillColor=none;align=left;verticalAlign=top;spacingLeft=4;spacingRight=4;overflow=hidden;rotatable=0;points=[[0,0.5],[1,0.5]];portConstraint=eastwest;" parent="OYpLQ3D31SUY-RjP1pAd-143" vertex="1"><mxGeometry y="82" width="190" height="26" as="geometry"/></mxCell><mxCell id="OYpLQ3D31SUY-RjP1pAd-145" value="+ IdInstructor: int" style="text;strokeColor=none;fillColor=none;align=left;verticalAlign=top;spacingLeft=4;spacingRight=4;overflow=hidden;rotatable=0;points=[[0,0.5],[1,0.5]];portConstraint=eastwest;" parent="OYpLQ3D31SUY-RjP1pAd-143" vertex="1"><mxGeometry y="108" width="190" height="26" as="geometry"/></mxCell><mxCell id="OYpLQ3D31SUY-RjP1pAd-146" value="" style="line;strokeWidth=1;fillColor=none;align=left;verticalAlign=middle;spacingTop=-1;spacingLeft=3;spacingRight=3;rotatable=0;labelPosition=right;points=[];portConstraint=eastwest;" parent="OYpLQ3D31SUY-RjP1pAd-143" vertex="1"><mxGeometry y="134" width="190" height="8" as="geometry"/></mxCell><mxCell id="OYpLQ3D31SUY-RjP1pAd-149" value="+ Alta(): void" style="text;strokeColor=none;fillColor=none;align=left;verticalAlign=top;spacingLeft=4;spacingRight=4;overflow=hidden;rotatable=0;points=[[0,0.5],[1,0.5]];portConstraint=eastwest;" parent="OYpLQ3D31SUY-RjP1pAd-143" vertex="1"><mxGeometry y="142" width="190" height="26" as="geometry"/></mxCell><mxCell id="OYpLQ3D31SUY-RjP1pAd-162" value="ExecSQL" style="swimlane;fontStyle=1;align=center;verticalAlign=top;childLayout=stackLayout;horizontal=1;startSize=26;horizontalStack=0;resizeParent=1;resizeParentMax=0;resizeLast=0;collapsible=1;marginBottom=0;" parent="1" vertex="1"><mxGeometry x="2020" y="542" width="250" height="86" as="geometry"/></mxCell><mxCell id="OYpLQ3D31SUY-RjP1pAd-163" value="" style="line;strokeWidth=1;fillColor=none;align=left;verticalAlign=middle;spacingTop=-1;spacingLeft=3;spacingRight=3;rotatable=0;labelPosition=right;points=[];portConstraint=eastwest;" parent="OYpLQ3D31SUY-RjP1pAd-162" vertex="1"><mxGeometry y="26" width="250" height="8" as="geometry"/></mxCell><mxCell id="OYpLQ3D31SUY-RjP1pAd-164" value="+ NonQuery(Query: string, Tipo: string): int" style="text;strokeColor=none;fillColor=none;align=left;verticalAlign=top;spacingLeft=4;spacingRight=4;overflow=hidden;rotatable=0;points=[[0,0.5],[1,0.5]];portConstraint=eastwest;" parent="OYpLQ3D31SUY-RjP1pAd-162" vertex="1"><mxGeometry y="34" width="250" height="26" as="geometry"/></mxCell><mxCell id="OYpLQ3D31SUY-RjP1pAd-165" value="+ Query(Query: string, Tipo: string): int" style="text;strokeColor=none;fillColor=none;align=left;verticalAlign=top;spacingLeft=4;spacingRight=4;overflow=hidden;rotatable=0;points=[[0,0.5],[1,0.5]];portConstraint=eastwest;" parent="OYpLQ3D31SUY-RjP1pAd-162" vertex="1"><mxGeometry y="60" width="250" height="26" as="geometry"/></mxCell><mxCell id="OYpLQ3D31SUY-RjP1pAd-166" value="Use" style="endArrow=open;endSize=12;dashed=1;html=1;rounded=0;edgeStyle=orthogonalEdgeStyle;" parent="1" source="OYpLQ3D31SUY-RjP1pAd-35" target="OYpLQ3D31SUY-RjP1pAd-162" edge="1"><mxGeometry x="-0.0886" width="160" relative="1" as="geometry"><mxPoint x="2020" y="472" as="sourcePoint"/><mxPoint x="2180" y="472" as="targetPoint"/><Array as="points"><mxPoint x="2175" y="422"/></Array><mxPoint as="offset"/></mxGeometry></mxCell><mxCell id="OYpLQ3D31SUY-RjP1pAd-167" value="Use" style="endArrow=open;endSize=12;dashed=1;html=1;rounded=0;edgeStyle=orthogonalEdgeStyle;" parent="1" source="OYpLQ3D31SUY-RjP1pAd-107" target="OYpLQ3D31SUY-RjP1pAd-162" edge="1"><mxGeometry width="160" relative="1" as="geometry"><mxPoint x="2020" y="472" as="sourcePoint"/><mxPoint x="2180" y="472" as="targetPoint"/><Array as="points"><mxPoint x="1980" y="872"/><mxPoint x="1980" y="585"/></Array></mxGeometry></mxCell><mxCell id="OYpLQ3D31SUY-RjP1pAd-168" value="Use" style="endArrow=open;endSize=12;dashed=1;html=1;rounded=0;edgeStyle=orthogonalEdgeStyle;entryX=0.208;entryY=1;entryDx=0;entryDy=0;entryPerimeter=0;" parent="1" source="OYpLQ3D31SUY-RjP1pAd-115" target="OYpLQ3D31SUY-RjP1pAd-165" edge="1"><mxGeometry width="160" relative="1" as="geometry"><mxPoint x="2020" y="472" as="sourcePoint"/><mxPoint x="2090" y="662" as="targetPoint"/></mxGeometry></mxCell><mxCell id="OYpLQ3D31SUY-RjP1pAd-169" value="Use" style="endArrow=open;endSize=12;dashed=1;html=1;rounded=0;edgeStyle=orthogonalEdgeStyle;" parent="1" source="OYpLQ3D31SUY-RjP1pAd-17" target="OYpLQ3D31SUY-RjP1pAd-162" edge="1"><mxGeometry x="-0.7054" width="160" relative="1" as="geometry"><mxPoint x="2020" y="372" as="sourcePoint"/><mxPoint x="2180" y="372" as="targetPoint"/><Array as="points"><mxPoint x="2105" y="122"/></Array><mxPoint as="offset"/></mxGeometry></mxCell><mxCell id="OYpLQ3D31SUY-RjP1pAd-170" value="Text" style="edgeLabel;html=1;align=center;verticalAlign=middle;resizable=0;points=[];" parent="OYpLQ3D31SUY-RjP1pAd-169" vertex="1" connectable="0"><mxGeometry x="0.248" y="-1" relative="1" as="geometry"><mxPoint as="offset"/></mxGeometry></mxCell><mxCell id="OYpLQ3D31SUY-RjP1pAd-174" value="static: GetFromDB" style="swimlane;fontStyle=1;align=center;verticalAlign=top;childLayout=stackLayout;horizontal=1;startSize=26;horizontalStack=0;resizeParent=1;resizeParentMax=0;resizeLast=0;collapsible=1;marginBottom=0;" parent="1" vertex="1"><mxGeometry x="1642.5" y="-1160" width="240" height="260" as="geometry"/></mxCell><mxCell id="OYpLQ3D31SUY-RjP1pAd-175" value="+ GetClientes(): List&lt;Cliente&gt;" style="text;strokeColor=none;fillColor=none;align=left;verticalAlign=top;spacingLeft=4;spacingRight=4;overflow=hidden;rotatable=0;points=[[0,0.5],[1,0.5]];portConstraint=eastwest;" parent="OYpLQ3D31SUY-RjP1pAd-174" vertex="1"><mxGeometry y="26" width="240" height="26" as="geometry"/></mxCell><mxCell id="OYpLQ3D31SUY-RjP1pAd-176" value="+ GetInstructores(): List&lt;Instructor&gt;" style="text;strokeColor=none;fillColor=none;align=left;verticalAlign=top;spacingLeft=4;spacingRight=4;overflow=hidden;rotatable=0;points=[[0,0.5],[1,0.5]];portConstraint=eastwest;" parent="OYpLQ3D31SUY-RjP1pAd-174" vertex="1"><mxGeometry y="52" width="240" height="26" as="geometry"/></mxCell><mxCell id="OYpLQ3D31SUY-RjP1pAd-177" value="+ GetUsuarios(): List&lt;Usuario&gt;" style="text;strokeColor=none;fillColor=none;align=left;verticalAlign=top;spacingLeft=4;spacingRight=4;overflow=hidden;rotatable=0;points=[[0,0.5],[1,0.5]];portConstraint=eastwest;" parent="OYpLQ3D31SUY-RjP1pAd-174" vertex="1"><mxGeometry y="78" width="240" height="26" as="geometry"/></mxCell><mxCell id="OYpLQ3D31SUY-RjP1pAd-178" value="+ GetClienteRenta(): List&lt;ClienteRenta&gt;" style="text;strokeColor=none;fillColor=none;align=left;verticalAlign=top;spacingLeft=4;spacingRight=4;overflow=hidden;rotatable=0;points=[[0,0.5],[1,0.5]];portConstraint=eastwest;" parent="OYpLQ3D31SUY-RjP1pAd-174" vertex="1"><mxGeometry y="104" width="240" height="26" as="geometry"/></mxCell><mxCell id="OYpLQ3D31SUY-RjP1pAd-179" value="+ GetClases(): List&lt;Clase&gt;" style="text;strokeColor=none;fillColor=none;align=left;verticalAlign=top;spacingLeft=4;spacingRight=4;overflow=hidden;rotatable=0;points=[[0,0.5],[1,0.5]];portConstraint=eastwest;" parent="OYpLQ3D31SUY-RjP1pAd-174" vertex="1"><mxGeometry y="130" width="240" height="26" as="geometry"/></mxCell><mxCell id="OYpLQ3D31SUY-RjP1pAd-180" value="+ GetEspacios(): List&lt;Espacio&gt;" style="text;strokeColor=none;fillColor=none;align=left;verticalAlign=top;spacingLeft=4;spacingRight=4;overflow=hidden;rotatable=0;points=[[0,0.5],[1,0.5]];portConstraint=eastwest;" parent="OYpLQ3D31SUY-RjP1pAd-174" vertex="1"><mxGeometry y="156" width="240" height="26" as="geometry"/></mxCell><mxCell id="OYpLQ3D31SUY-RjP1pAd-181" value="+ GetRentas(): List&lt;Renta&gt;" style="text;strokeColor=none;fillColor=none;align=left;verticalAlign=top;spacingLeft=4;spacingRight=4;overflow=hidden;rotatable=0;points=[[0,0.5],[1,0.5]];portConstraint=eastwest;" parent="OYpLQ3D31SUY-RjP1pAd-174" vertex="1"><mxGeometry y="182" width="240" height="26" as="geometry"/></mxCell><mxCell id="OYpLQ3D31SUY-RjP1pAd-182" value="+ GetIngresos(): List&lt;ingresos&gt;" style="text;strokeColor=none;fillColor=none;align=left;verticalAlign=top;spacingLeft=4;spacingRight=4;overflow=hidden;rotatable=0;points=[[0,0.5],[1,0.5]];portConstraint=eastwest;" parent="OYpLQ3D31SUY-RjP1pAd-174" vertex="1"><mxGeometry y="208" width="240" height="26" as="geometry"/></mxCell><mxCell id="OYpLQ3D31SUY-RjP1pAd-183" value="+ GetEgresos(): List&lt;movimientos&gt;" style="text;strokeColor=none;fillColor=none;align=left;verticalAlign=top;spacingLeft=4;spacingRight=4;overflow=hidden;rotatable=0;points=[[0,0.5],[1,0.5]];portConstraint=eastwest;" parent="OYpLQ3D31SUY-RjP1pAd-174" vertex="1"><mxGeometry y="234" width="240" height="26" as="geometry"/></mxCell><mxCell id="OYpLQ3D31SUY-RjP1pAd-185" value="AbstClientInstructor: abstract" style="swimlane;fontStyle=3;align=center;verticalAlign=top;childLayout=stackLayout;horizontal=1;startSize=30;horizontalStack=0;resizeParent=1;resizeParentMax=0;resizeLast=0;collapsible=1;marginBottom=0;" parent="1" vertex="1"><mxGeometry x="690" y="338" width="310" height="194" as="geometry"/></mxCell><mxCell id="OYpLQ3D31SUY-RjP1pAd-186" value="+ FechaUltimoAcceso: datetime" style="text;strokeColor=none;fillColor=none;align=left;verticalAlign=top;spacingLeft=4;spacingRight=4;overflow=hidden;rotatable=0;points=[[0,0.5],[1,0.5]];portConstraint=eastwest;" parent="OYpLQ3D31SUY-RjP1pAd-185" vertex="1"><mxGeometry y="30" width="310" height="26" as="geometry"/></mxCell><mxCell id="OYpLQ3D31SUY-RjP1pAd-271" value="+ FechaUltimoPago: datetime" style="text;strokeColor=none;fillColor=none;align=left;verticalAlign=top;spacingLeft=4;spacingRight=4;overflow=hidden;rotatable=0;points=[[0,0.5],[1,0.5]];portConstraint=eastwest;" parent="OYpLQ3D31SUY-RjP1pAd-185" vertex="1"><mxGeometry y="56" width="310" height="26" as="geometry"/></mxCell><mxCell id="OYpLQ3D31SUY-RjP1pAd-24" value="+ MontoUltimoPago: decimal" style="text;strokeColor=none;fillColor=none;align=left;verticalAlign=top;spacingLeft=4;spacingRight=4;overflow=hidden;rotatable=0;points=[[0,0.5],[1,0.5]];portConstraint=eastwest;" parent="OYpLQ3D31SUY-RjP1pAd-185" vertex="1"><mxGeometry y="82" width="310" height="26" as="geometry"/></mxCell><mxCell id="OYpLQ3D31SUY-RjP1pAd-187" value="" style="line;strokeWidth=1;fillColor=none;align=left;verticalAlign=middle;spacingTop=-1;spacingLeft=3;spacingRight=3;rotatable=0;labelPosition=right;points=[];portConstraint=eastwest;" parent="OYpLQ3D31SUY-RjP1pAd-185" vertex="1"><mxGeometry y="108" width="310" height="8" as="geometry"/></mxCell><mxCell id="OYpLQ3D31SUY-RjP1pAd-188" value="+ NuevaAsistencia(): TasK&lt;int&gt;" style="text;strokeColor=none;fillColor=none;align=left;verticalAlign=top;spacingLeft=4;spacingRight=4;overflow=hidden;rotatable=0;points=[[0,0.5],[1,0.5]];portConstraint=eastwest;" parent="OYpLQ3D31SUY-RjP1pAd-185" vertex="1"><mxGeometry y="116" width="310" height="26" as="geometry"/></mxCell><mxCell id="OYpLQ3D31SUY-RjP1pAd-189" value="+ Pago(decimal: cantidad): void" style="text;strokeColor=none;fillColor=none;align=left;verticalAlign=top;spacingLeft=4;spacingRight=4;overflow=hidden;rotatable=0;points=[[0,0.5],[1,0.5]];portConstraint=eastwest;" parent="OYpLQ3D31SUY-RjP1pAd-185" vertex="1"><mxGeometry y="142" width="310" height="26" as="geometry"/></mxCell><mxCell id="OYpLQ3D31SUY-RjP1pAd-288" value="+ GetHorarioStr(): string" style="text;strokeColor=none;fillColor=none;align=left;verticalAlign=top;spacingLeft=4;spacingRight=4;overflow=hidden;rotatable=0;points=[[0,0.5],[1,0.5]];portConstraint=eastwest;" parent="OYpLQ3D31SUY-RjP1pAd-185" vertex="1"><mxGeometry y="168" width="310" height="26" as="geometry"/></mxCell><mxCell id="OYpLQ3D31SUY-RjP1pAd-192" value="" style="endArrow=block;dashed=1;endFill=0;endSize=12;html=1;rounded=0;edgeStyle=orthogonalEdgeStyle;" parent="1" source="OYpLQ3D31SUY-RjP1pAd-185" target="OYpLQ3D31SUY-RjP1pAd-1" edge="1"><mxGeometry width="160" relative="1" as="geometry"><mxPoint x="1710" y="882" as="sourcePoint"/><mxPoint x="935" y="592" as="targetPoint"/><Array as="points"/></mxGeometry></mxCell><mxCell id="OYpLQ3D31SUY-RjP1pAd-193" value="" style="endArrow=block;dashed=1;endFill=0;endSize=12;html=1;rounded=0;edgeStyle=orthogonalEdgeStyle;" parent="1" source="OYpLQ3D31SUY-RjP1pAd-17" target="OYpLQ3D31SUY-RjP1pAd-185" edge="1"><mxGeometry width="160" relative="1" as="geometry"><mxPoint x="1500" y="12" as="sourcePoint"/><mxPoint x="1390" y="12" as="targetPoint"/><Array as="points"/></mxGeometry></mxCell><mxCell id="OYpLQ3D31SUY-RjP1pAd-194" value="" style="endArrow=block;dashed=1;endFill=0;endSize=12;html=1;rounded=0;edgeStyle=orthogonalEdgeStyle;" parent="1" source="OYpLQ3D31SUY-RjP1pAd-35" target="OYpLQ3D31SUY-RjP1pAd-185" edge="1"><mxGeometry width="160" relative="1" as="geometry"><mxPoint x="1460" y="432" as="sourcePoint"/><mxPoint x="1380" y="565" as="targetPoint"/><Array as="points"><mxPoint x="1550" y="492"/><mxPoint x="1550" y="492"/></Array></mxGeometry></mxCell><mxCell id="OYpLQ3D31SUY-RjP1pAd-195" value="Init" style="swimlane;fontStyle=1;align=center;verticalAlign=top;childLayout=stackLayout;horizontal=1;startSize=26;horizontalStack=0;resizeParent=1;resizeParentMax=0;resizeLast=0;collapsible=1;marginBottom=0;" parent="1" vertex="1"><mxGeometry x="770" y="-521" width="280" height="112" as="geometry"/></mxCell><mxCell id="OYpLQ3D31SUY-RjP1pAd-196" value="+ Username: string" style="text;strokeColor=none;fillColor=none;align=left;verticalAlign=top;spacingLeft=4;spacingRight=4;overflow=hidden;rotatable=0;points=[[0,0.5],[1,0.5]];portConstraint=eastwest;" parent="OYpLQ3D31SUY-RjP1pAd-195" vertex="1"><mxGeometry y="26" width="280" height="26" as="geometry"/></mxCell><mxCell id="OYpLQ3D31SUY-RjP1pAd-197" value="" style="line;strokeWidth=1;fillColor=none;align=left;verticalAlign=middle;spacingTop=-1;spacingLeft=3;spacingRight=3;rotatable=0;labelPosition=right;points=[];portConstraint=eastwest;" parent="OYpLQ3D31SUY-RjP1pAd-195" vertex="1"><mxGeometry y="52" width="280" height="8" as="geometry"/></mxCell><mxCell id="OYpLQ3D31SUY-RjP1pAd-198" value="+ LogIn(String: username, String: password): bool" style="text;strokeColor=none;fillColor=none;align=left;verticalAlign=top;spacingLeft=4;spacingRight=4;overflow=hidden;rotatable=0;points=[[0,0.5],[1,0.5]];portConstraint=eastwest;" parent="OYpLQ3D31SUY-RjP1pAd-195" vertex="1"><mxGeometry y="60" width="280" height="26" as="geometry"/></mxCell><mxCell id="OYpLQ3D31SUY-RjP1pAd-199" value="- UpdateLastConnection(): void" style="text;strokeColor=none;fillColor=none;align=left;verticalAlign=top;spacingLeft=4;spacingRight=4;overflow=hidden;rotatable=0;points=[[0,0.5],[1,0.5]];portConstraint=eastwest;" parent="OYpLQ3D31SUY-RjP1pAd-195" vertex="1"><mxGeometry y="86" width="280" height="26" as="geometry"/></mxCell><mxCell id="OYpLQ3D31SUY-RjP1pAd-200" value="GetInitData" style="swimlane;fontStyle=1;align=center;verticalAlign=top;childLayout=stackLayout;horizontal=1;startSize=26;horizontalStack=0;resizeParent=1;resizeParentMax=0;resizeLast=0;collapsible=1;marginBottom=0;" parent="1" vertex="1"><mxGeometry x="500" y="-688" width="200" height="190" as="geometry"/></mxCell><mxCell id="OYpLQ3D31SUY-RjP1pAd-201" value="+ ConnString: string" style="text;strokeColor=none;fillColor=none;align=left;verticalAlign=top;spacingLeft=4;spacingRight=4;overflow=hidden;rotatable=0;points=[[0,0.5],[1,0.5]];portConstraint=eastwest;" parent="OYpLQ3D31SUY-RjP1pAd-200" vertex="1"><mxGeometry y="26" width="200" height="26" as="geometry"/></mxCell><mxCell id="P3IwJ0CeBcSDWGgDDLUP-177" value="- IniPath: string" style="text;strokeColor=none;fillColor=none;align=left;verticalAlign=top;spacingLeft=4;spacingRight=4;overflow=hidden;rotatable=0;points=[[0,0.5],[1,0.5]];portConstraint=eastwest;" parent="OYpLQ3D31SUY-RjP1pAd-200" vertex="1"><mxGeometry y="52" width="200" height="26" as="geometry"/></mxCell><mxCell id="OYpLQ3D31SUY-RjP1pAd-202" value="" style="line;strokeWidth=1;fillColor=none;align=left;verticalAlign=middle;spacingTop=-1;spacingLeft=3;spacingRight=3;rotatable=0;labelPosition=right;points=[];portConstraint=eastwest;" parent="OYpLQ3D31SUY-RjP1pAd-200" vertex="1"><mxGeometry y="78" width="200" height="8" as="geometry"/></mxCell><mxCell id="OYpLQ3D31SUY-RjP1pAd-203" value="+ GetConnString(): string" style="text;strokeColor=none;fillColor=none;align=left;verticalAlign=top;spacingLeft=4;spacingRight=4;overflow=hidden;rotatable=0;points=[[0,0.5],[1,0.5]];portConstraint=eastwest;" parent="OYpLQ3D31SUY-RjP1pAd-200" vertex="1"><mxGeometry y="86" width="200" height="26" as="geometry"/></mxCell><mxCell id="OYpLQ3D31SUY-RjP1pAd-204" value="- SetUpIni: void" style="text;strokeColor=none;fillColor=none;align=left;verticalAlign=top;spacingLeft=4;spacingRight=4;overflow=hidden;rotatable=0;points=[[0,0.5],[1,0.5]];portConstraint=eastwest;" parent="OYpLQ3D31SUY-RjP1pAd-200" vertex="1"><mxGeometry y="112" width="200" height="26" as="geometry"/></mxCell><mxCell id="P3IwJ0CeBcSDWGgDDLUP-178" value="- CreateIni: void" style="text;strokeColor=none;fillColor=none;align=left;verticalAlign=top;spacingLeft=4;spacingRight=4;overflow=hidden;rotatable=0;points=[[0,0.5],[1,0.5]];portConstraint=eastwest;" parent="OYpLQ3D31SUY-RjP1pAd-200" vertex="1"><mxGeometry y="138" width="200" height="26" as="geometry"/></mxCell><mxCell id="P3IwJ0CeBcSDWGgDDLUP-179" value="- CheckFields: void" style="text;strokeColor=none;fillColor=none;align=left;verticalAlign=top;spacingLeft=4;spacingRight=4;overflow=hidden;rotatable=0;points=[[0,0.5],[1,0.5]];portConstraint=eastwest;" parent="OYpLQ3D31SUY-RjP1pAd-200" vertex="1"><mxGeometry y="164" width="200" height="26" as="geometry"/></mxCell><mxCell id="OYpLQ3D31SUY-RjP1pAd-205" value="IniFile" style="swimlane;fontStyle=1;align=center;verticalAlign=top;childLayout=stackLayout;horizontal=1;startSize=26;horizontalStack=0;resizeParent=1;resizeParentMax=0;resizeLast=0;collapsible=1;marginBottom=0;" parent="1" vertex="1"><mxGeometry x="780" y="-740" width="260" height="190" as="geometry"/></mxCell><mxCell id="OYpLQ3D31SUY-RjP1pAd-206" value="- readonly string _path" style="text;strokeColor=none;fillColor=none;align=left;verticalAlign=top;spacingLeft=4;spacingRight=4;overflow=hidden;rotatable=0;points=[[0,0.5],[1,0.5]];portConstraint=eastwest;" parent="OYpLQ3D31SUY-RjP1pAd-205" vertex="1"><mxGeometry y="26" width="260" height="26" as="geometry"/></mxCell><mxCell id="OYpLQ3D31SUY-RjP1pAd-207" value="" style="line;strokeWidth=1;fillColor=none;align=left;verticalAlign=middle;spacingTop=-1;spacingLeft=3;spacingRight=3;rotatable=0;labelPosition=right;points=[];portConstraint=eastwest;" parent="OYpLQ3D31SUY-RjP1pAd-205" vertex="1"><mxGeometry y="52" width="260" height="8" as="geometry"/></mxCell><mxCell id="OYpLQ3D31SUY-RjP1pAd-208" value="+ IniFile(string: iniPath): " style="text;strokeColor=none;fillColor=none;align=left;verticalAlign=top;spacingLeft=4;spacingRight=4;overflow=hidden;rotatable=0;points=[[0,0.5],[1,0.5]];portConstraint=eastwest;" parent="OYpLQ3D31SUY-RjP1pAd-205" vertex="1"><mxGeometry y="60" width="260" height="26" as="geometry"/></mxCell><mxCell id="P3IwJ0CeBcSDWGgDDLUP-180" value="+ Read(string: key, string: section): string" style="text;strokeColor=none;fillColor=none;align=left;verticalAlign=top;spacingLeft=4;spacingRight=4;overflow=hidden;rotatable=0;points=[[0,0.5],[1,0.5]];portConstraint=eastwest;" parent="OYpLQ3D31SUY-RjP1pAd-205" vertex="1"><mxGeometry y="86" width="260" height="26" as="geometry"/></mxCell><mxCell id="P3IwJ0CeBcSDWGgDDLUP-181" value="+ DeleteKey(string: key, string: section): void" style="text;strokeColor=none;fillColor=none;align=left;verticalAlign=top;spacingLeft=4;spacingRight=4;overflow=hidden;rotatable=0;points=[[0,0.5],[1,0.5]];portConstraint=eastwest;" parent="OYpLQ3D31SUY-RjP1pAd-205" vertex="1"><mxGeometry y="112" width="260" height="26" as="geometry"/></mxCell><mxCell id="P3IwJ0CeBcSDWGgDDLUP-182" value="+ DeleteSection(string: section): void" style="text;strokeColor=none;fillColor=none;align=left;verticalAlign=top;spacingLeft=4;spacingRight=4;overflow=hidden;rotatable=0;points=[[0,0.5],[1,0.5]];portConstraint=eastwest;" parent="OYpLQ3D31SUY-RjP1pAd-205" vertex="1"><mxGeometry y="138" width="260" height="26" as="geometry"/></mxCell><mxCell id="P3IwJ0CeBcSDWGgDDLUP-183" value="+ keyExists(string: key, string: section): bool" style="text;strokeColor=none;fillColor=none;align=left;verticalAlign=top;spacingLeft=4;spacingRight=4;overflow=hidden;rotatable=0;points=[[0,0.5],[1,0.5]];portConstraint=eastwest;" parent="OYpLQ3D31SUY-RjP1pAd-205" vertex="1"><mxGeometry y="164" width="260" height="26" as="geometry"/></mxCell><mxCell id="OYpLQ3D31SUY-RjP1pAd-210" value="Use" style="endArrow=open;endSize=12;dashed=1;html=1;rounded=0;edgeStyle=orthogonalEdgeStyle;" parent="1" source="OYpLQ3D31SUY-RjP1pAd-200" target="OYpLQ3D31SUY-RjP1pAd-205" edge="1"><mxGeometry width="160" relative="1" as="geometry"><mxPoint x="720" y="-678" as="sourcePoint"/><mxPoint x="880" y="-678" as="targetPoint"/><Array as="points"><mxPoint x="720" y="-499"/><mxPoint x="720" y="-728"/></Array></mxGeometry></mxCell><mxCell id="OYpLQ3D31SUY-RjP1pAd-211" value="static AdminClienteInstructor" style="swimlane;fontStyle=1;align=center;verticalAlign=top;childLayout=stackLayout;horizontal=1;startSize=26;horizontalStack=0;resizeParent=1;resizeParentMax=0;resizeLast=0;collapsible=1;marginBottom=0;" parent="1" vertex="1"><mxGeometry x="1050" y="102" width="400" height="78" as="geometry"/></mxCell><mxCell id="OYpLQ3D31SUY-RjP1pAd-212" value="+ NuevaAsistencia(AbstClientInstructor: objeto, Horario: horario): void" style="text;strokeColor=none;fillColor=none;align=left;verticalAlign=top;spacingLeft=4;spacingRight=4;overflow=hidden;rotatable=0;points=[[0,0.5],[1,0.5]];portConstraint=eastwest;" parent="OYpLQ3D31SUY-RjP1pAd-211" vertex="1"><mxGeometry y="26" width="400" height="26" as="geometry"/></mxCell><mxCell id="OYpLQ3D31SUY-RjP1pAd-213" value="+ Pago(AbstClientInstructor: objeto, cantidad: decimal) void" style="text;strokeColor=none;fillColor=none;align=left;verticalAlign=top;spacingLeft=4;spacingRight=4;overflow=hidden;rotatable=0;points=[[0,0.5],[1,0.5]];portConstraint=eastwest;" parent="OYpLQ3D31SUY-RjP1pAd-211" vertex="1"><mxGeometry y="52" width="400" height="26" as="geometry"/></mxCell><mxCell id="OYpLQ3D31SUY-RjP1pAd-214" value="static: ShowPrettyMessage" style="swimlane;fontStyle=1;align=center;verticalAlign=top;childLayout=stackLayout;horizontal=1;startSize=26;horizontalStack=0;resizeParent=1;resizeParentMax=0;resizeLast=0;collapsible=1;marginBottom=0;" parent="1" vertex="1"><mxGeometry x="1270" y="-1154" width="305" height="104" as="geometry"/></mxCell><mxCell id="OYpLQ3D31SUY-RjP1pAd-215" value="+ ErrorOk(string: mensaje, string: titulo): void" style="text;strokeColor=none;fillColor=none;align=left;verticalAlign=top;spacingLeft=4;spacingRight=4;overflow=hidden;rotatable=0;points=[[0,0.5],[1,0.5]];portConstraint=eastwest;" parent="OYpLQ3D31SUY-RjP1pAd-214" vertex="1"><mxGeometry y="26" width="305" height="26" as="geometry"/></mxCell><mxCell id="OYpLQ3D31SUY-RjP1pAd-216" value="+ WarningOk(string: mensaje, string: titulo): void" style="text;strokeColor=none;fillColor=none;align=left;verticalAlign=top;spacingLeft=4;spacingRight=4;overflow=hidden;rotatable=0;points=[[0,0.5],[1,0.5]];portConstraint=eastwest;" parent="OYpLQ3D31SUY-RjP1pAd-214" vertex="1"><mxGeometry y="52" width="305" height="26" as="geometry"/></mxCell><mxCell id="OYpLQ3D31SUY-RjP1pAd-217" value="+ Question(string: mensaje, string titulo): void" style="text;strokeColor=none;fillColor=none;align=left;verticalAlign=top;spacingLeft=4;spacingRight=4;overflow=hidden;rotatable=0;points=[[0,0.5],[1,0.5]];portConstraint=eastwest;" parent="OYpLQ3D31SUY-RjP1pAd-214" vertex="1"><mxGeometry y="78" width="305" height="26" as="geometry"/></mxCell><mxCell id="OYpLQ3D31SUY-RjP1pAd-218" value="Use" style="endArrow=open;endSize=12;dashed=1;html=1;rounded=0;edgeStyle=orthogonalEdgeStyle;" parent="1" source="OYpLQ3D31SUY-RjP1pAd-211" target="OYpLQ3D31SUY-RjP1pAd-185" edge="1"><mxGeometry width="160" relative="1" as="geometry"><mxPoint x="940" y="92" as="sourcePoint"/><mxPoint x="1100" y="92" as="targetPoint"/></mxGeometry></mxCell><mxCell id="OYpLQ3D31SUY-RjP1pAd-220" value="static AdminUsuariosGral" style="swimlane;fontStyle=1;align=center;verticalAlign=top;childLayout=stackLayout;horizontal=1;startSize=26;horizontalStack=0;resizeParent=1;resizeParentMax=0;resizeLast=0;collapsible=1;marginBottom=0;" parent="1" vertex="1"><mxGeometry x="1105" y="532" width="290" height="104" as="geometry"/></mxCell><mxCell id="OYpLQ3D31SUY-RjP1pAd-221" value="+ Update(AbstUsuario: objeto): void" style="text;strokeColor=none;fillColor=none;align=left;verticalAlign=top;spacingLeft=4;spacingRight=4;overflow=hidden;rotatable=0;points=[[0,0.5],[1,0.5]];portConstraint=eastwest;" parent="OYpLQ3D31SUY-RjP1pAd-220" vertex="1"><mxGeometry y="26" width="290" height="26" as="geometry"/></mxCell><mxCell id="OYpLQ3D31SUY-RjP1pAd-222" value="+ Delete(AbstUsuario: objeto): void" style="text;strokeColor=none;fillColor=none;align=left;verticalAlign=top;spacingLeft=4;spacingRight=4;overflow=hidden;rotatable=0;points=[[0,0.5],[1,0.5]];portConstraint=eastwest;" parent="OYpLQ3D31SUY-RjP1pAd-220" vertex="1"><mxGeometry y="52" width="290" height="26" as="geometry"/></mxCell><mxCell id="OYpLQ3D31SUY-RjP1pAd-223" value="+ Alta(AbstUsuario: objeto): void" style="text;strokeColor=none;fillColor=none;align=left;verticalAlign=top;spacingLeft=4;spacingRight=4;overflow=hidden;rotatable=0;points=[[0,0.5],[1,0.5]];portConstraint=eastwest;" parent="OYpLQ3D31SUY-RjP1pAd-220" vertex="1"><mxGeometry y="78" width="290" height="26" as="geometry"/></mxCell><mxCell id="OYpLQ3D31SUY-RjP1pAd-224" value="Use" style="endArrow=open;endSize=12;dashed=1;html=1;rounded=0;edgeStyle=orthogonalEdgeStyle;" parent="1" source="OYpLQ3D31SUY-RjP1pAd-220" target="OYpLQ3D31SUY-RjP1pAd-1" edge="1"><mxGeometry width="160" relative="1" as="geometry"><mxPoint x="1550" y="902" as="sourcePoint"/><mxPoint x="1710" y="902" as="targetPoint"/></mxGeometry></mxCell><mxCell id="OYpLQ3D31SUY-RjP1pAd-225" value="" style="endArrow=block;dashed=1;endFill=0;endSize=12;html=1;rounded=0;edgeStyle=orthogonalEdgeStyle;" parent="1" source="OYpLQ3D31SUY-RjP1pAd-211" target="OYpLQ3D31SUY-RjP1pAd-220" edge="1"><mxGeometry width="160" relative="1" as="geometry"><mxPoint x="1340" y="492" as="sourcePoint"/><mxPoint x="1500" y="492" as="targetPoint"/></mxGeometry></mxCell><mxCell id="OYpLQ3D31SUY-RjP1pAd-226" value="Extends" style="endArrow=block;endSize=16;endFill=0;html=1;rounded=0;edgeStyle=orthogonalEdgeStyle;" parent="1" source="OYpLQ3D31SUY-RjP1pAd-220" target="OYpLQ3D31SUY-RjP1pAd-107" edge="1"><mxGeometry width="160" relative="1" as="geometry"><mxPoint x="1420" y="582" as="sourcePoint"/><mxPoint x="1580" y="582" as="targetPoint"/><Array as="points"><mxPoint x="1540" y="584"/><mxPoint x="1540" y="847"/></Array></mxGeometry></mxCell><mxCell id="OYpLQ3D31SUY-RjP1pAd-227" value="Extends" style="endArrow=block;endSize=16;endFill=0;html=1;rounded=0;edgeStyle=orthogonalEdgeStyle;" parent="1" source="OYpLQ3D31SUY-RjP1pAd-220" target="OYpLQ3D31SUY-RjP1pAd-115" edge="1"><mxGeometry width="160" relative="1" as="geometry"><mxPoint x="1350" y="719" as="sourcePoint"/><mxPoint x="1510" y="719" as="targetPoint"/><Array as="points"><mxPoint x="1510" y="584"/><mxPoint x="1510" y="1003"/></Array></mxGeometry></mxCell><mxCell id="OYpLQ3D31SUY-RjP1pAd-228" value="Extends" style="endArrow=block;endSize=16;endFill=0;html=1;rounded=0;edgeStyle=orthogonalEdgeStyle;" parent="1" source="OYpLQ3D31SUY-RjP1pAd-211" target="OYpLQ3D31SUY-RjP1pAd-35" edge="1"><mxGeometry width="160" relative="1" as="geometry"><mxPoint x="1520" y="282" as="sourcePoint"/><mxPoint x="1680" y="282" as="targetPoint"/><Array as="points"><mxPoint x="1730" y="282"/></Array></mxGeometry></mxCell><mxCell id="OYpLQ3D31SUY-RjP1pAd-229" value="Extends" style="endArrow=block;endSize=16;endFill=0;html=1;rounded=0;edgeStyle=orthogonalEdgeStyle;" parent="1" source="OYpLQ3D31SUY-RjP1pAd-211" target="OYpLQ3D31SUY-RjP1pAd-17" edge="1"><mxGeometry width="160" relative="1" as="geometry"><mxPoint x="1520" y="282" as="sourcePoint"/><mxPoint x="1680" y="282" as="targetPoint"/><Array as="points"><mxPoint x="1520" y="141"/><mxPoint x="1520" y="47"/></Array></mxGeometry></mxCell><mxCell id="OYpLQ3D31SUY-RjP1pAd-230" value="UsuarioValidation" style="swimlane;fontStyle=1;align=center;verticalAlign=top;childLayout=stackLayout;horizontal=1;startSize=26;horizontalStack=0;resizeParent=1;resizeParentMax=0;resizeLast=0;collapsible=1;marginBottom=0;" parent="1" vertex="1"><mxGeometry x="414" y="700" width="160" height="234" as="geometry"/></mxCell><mxCell id="OYpLQ3D31SUY-RjP1pAd-231" value="Id" style="text;strokeColor=none;fillColor=none;align=left;verticalAlign=top;spacingLeft=4;spacingRight=4;overflow=hidden;rotatable=0;points=[[0,0.5],[1,0.5]];portConstraint=eastwest;" parent="OYpLQ3D31SUY-RjP1pAd-230" vertex="1"><mxGeometry y="26" width="160" height="26" as="geometry"/></mxCell><mxCell id="OYpLQ3D31SUY-RjP1pAd-232" value="Nombre" style="text;strokeColor=none;fillColor=none;align=left;verticalAlign=top;spacingLeft=4;spacingRight=4;overflow=hidden;rotatable=0;points=[[0,0.5],[1,0.5]];portConstraint=eastwest;" parent="OYpLQ3D31SUY-RjP1pAd-230" vertex="1"><mxGeometry y="52" width="160" height="26" as="geometry"/></mxCell><mxCell id="OYpLQ3D31SUY-RjP1pAd-233" value="ApellidoPaterno" style="text;strokeColor=none;fillColor=none;align=left;verticalAlign=top;spacingLeft=4;spacingRight=4;overflow=hidden;rotatable=0;points=[[0,0.5],[1,0.5]];portConstraint=eastwest;" parent="OYpLQ3D31SUY-RjP1pAd-230" vertex="1"><mxGeometry y="78" width="160" height="26" as="geometry"/></mxCell><mxCell id="OYpLQ3D31SUY-RjP1pAd-234" value="ApellidoMaterno" style="text;strokeColor=none;fillColor=none;align=left;verticalAlign=top;spacingLeft=4;spacingRight=4;overflow=hidden;rotatable=0;points=[[0,0.5],[1,0.5]];portConstraint=eastwest;" parent="OYpLQ3D31SUY-RjP1pAd-230" vertex="1"><mxGeometry y="104" width="160" height="26" as="geometry"/></mxCell><mxCell id="OYpLQ3D31SUY-RjP1pAd-270" value="Domicilio" style="text;strokeColor=none;fillColor=none;align=left;verticalAlign=top;spacingLeft=4;spacingRight=4;overflow=hidden;rotatable=0;points=[[0,0.5],[1,0.5]];portConstraint=eastwest;" parent="OYpLQ3D31SUY-RjP1pAd-230" vertex="1"><mxGeometry y="130" width="160" height="26" as="geometry"/></mxCell><mxCell id="OYpLQ3D31SUY-RjP1pAd-235" value="Telefono" style="text;strokeColor=none;fillColor=none;align=left;verticalAlign=top;spacingLeft=4;spacingRight=4;overflow=hidden;rotatable=0;points=[[0,0.5],[1,0.5]];portConstraint=eastwest;" parent="OYpLQ3D31SUY-RjP1pAd-230" vertex="1"><mxGeometry y="156" width="160" height="26" as="geometry"/></mxCell><mxCell id="OYpLQ3D31SUY-RjP1pAd-236" value="NombreContacto" style="text;strokeColor=none;fillColor=none;align=left;verticalAlign=top;spacingLeft=4;spacingRight=4;overflow=hidden;rotatable=0;points=[[0,0.5],[1,0.5]];portConstraint=eastwest;" parent="OYpLQ3D31SUY-RjP1pAd-230" vertex="1"><mxGeometry y="182" width="160" height="26" as="geometry"/></mxCell><mxCell id="OYpLQ3D31SUY-RjP1pAd-237" value="TelefonoContacto" style="text;strokeColor=none;fillColor=none;align=left;verticalAlign=top;spacingLeft=4;spacingRight=4;overflow=hidden;rotatable=0;points=[[0,0.5],[1,0.5]];portConstraint=eastwest;" parent="OYpLQ3D31SUY-RjP1pAd-230" vertex="1"><mxGeometry y="208" width="160" height="26" as="geometry"/></mxCell><mxCell id="OYpLQ3D31SUY-RjP1pAd-238" value="Use" style="endArrow=open;endSize=12;dashed=1;html=1;rounded=0;" parent="1" source="OYpLQ3D31SUY-RjP1pAd-230" target="OYpLQ3D31SUY-RjP1pAd-1" edge="1"><mxGeometry width="160" relative="1" as="geometry"><mxPoint x="700" y="802" as="sourcePoint"/><mxPoint x="860" y="802" as="targetPoint"/></mxGeometry></mxCell><mxCell id="OYpLQ3D31SUY-RjP1pAd-239" value="Lockers" style="swimlane;fontStyle=1;align=center;verticalAlign=top;childLayout=stackLayout;horizontal=1;startSize=26;horizontalStack=0;resizeParent=1;resizeParentMax=0;resizeLast=0;collapsible=1;marginBottom=0;" parent="1" vertex="1"><mxGeometry x="1230" y="-439" width="140" height="138" as="geometry"/></mxCell><mxCell id="OYpLQ3D31SUY-RjP1pAd-240" value="+ IdLocker: int" style="text;strokeColor=none;fillColor=none;align=left;verticalAlign=top;spacingLeft=4;spacingRight=4;overflow=hidden;rotatable=0;points=[[0,0.5],[1,0.5]];portConstraint=eastwest;" parent="OYpLQ3D31SUY-RjP1pAd-239" vertex="1"><mxGeometry y="26" width="140" height="26" as="geometry"/></mxCell><mxCell id="OYpLQ3D31SUY-RjP1pAd-241" value="+ Nombre: string" style="text;strokeColor=none;fillColor=none;align=left;verticalAlign=top;spacingLeft=4;spacingRight=4;overflow=hidden;rotatable=0;points=[[0,0.5],[1,0.5]];portConstraint=eastwest;" parent="OYpLQ3D31SUY-RjP1pAd-239" vertex="1"><mxGeometry y="52" width="140" height="26" as="geometry"/></mxCell><mxCell id="OYpLQ3D31SUY-RjP1pAd-242" value="+ IdCliente: int" style="text;strokeColor=none;fillColor=none;align=left;verticalAlign=top;spacingLeft=4;spacingRight=4;overflow=hidden;rotatable=0;points=[[0,0.5],[1,0.5]];portConstraint=eastwest;" parent="OYpLQ3D31SUY-RjP1pAd-239" vertex="1"><mxGeometry y="78" width="140" height="26" as="geometry"/></mxCell><mxCell id="OYpLQ3D31SUY-RjP1pAd-243" value="" style="line;strokeWidth=1;fillColor=none;align=left;verticalAlign=middle;spacingTop=-1;spacingLeft=3;spacingRight=3;rotatable=0;labelPosition=right;points=[];portConstraint=eastwest;" parent="OYpLQ3D31SUY-RjP1pAd-239" vertex="1"><mxGeometry y="104" width="140" height="8" as="geometry"/></mxCell><mxCell id="OYpLQ3D31SUY-RjP1pAd-244" value="+ " style="text;strokeColor=none;fillColor=none;align=left;verticalAlign=top;spacingLeft=4;spacingRight=4;overflow=hidden;rotatable=0;points=[[0,0.5],[1,0.5]];portConstraint=eastwest;" parent="OYpLQ3D31SUY-RjP1pAd-239" vertex="1"><mxGeometry y="112" width="140" height="26" as="geometry"/></mxCell><mxCell id="OYpLQ3D31SUY-RjP1pAd-245" value="Paquete" style="swimlane;fontStyle=1;align=center;verticalAlign=top;childLayout=stackLayout;horizontal=1;startSize=26;horizontalStack=0;resizeParent=1;resizeParentMax=0;resizeLast=0;collapsible=1;marginBottom=0;" parent="1" vertex="1"><mxGeometry x="2020" y="-508" width="280" height="320" as="geometry"/></mxCell><mxCell id="OYpLQ3D31SUY-RjP1pAd-246" value="+ IdPaquete: int" style="text;strokeColor=none;fillColor=none;align=left;verticalAlign=top;spacingLeft=4;spacingRight=4;overflow=hidden;rotatable=0;points=[[0,0.5],[1,0.5]];portConstraint=eastwest;" parent="OYpLQ3D31SUY-RjP1pAd-245" vertex="1"><mxGeometry y="26" width="280" height="26" as="geometry"/></mxCell><mxCell id="OYpLQ3D31SUY-RjP1pAd-247" value="+ Gym: bool" style="text;strokeColor=none;fillColor=none;align=left;verticalAlign=top;spacingLeft=4;spacingRight=4;overflow=hidden;rotatable=0;points=[[0,0.5],[1,0.5]];portConstraint=eastwest;" parent="OYpLQ3D31SUY-RjP1pAd-245" vertex="1"><mxGeometry y="52" width="280" height="26" as="geometry"/></mxCell><mxCell id="OYpLQ3D31SUY-RjP1pAd-248" value="+ Nombre: string" style="text;strokeColor=none;fillColor=none;align=left;verticalAlign=top;spacingLeft=4;spacingRight=4;overflow=hidden;rotatable=0;points=[[0,0.5],[1,0.5]];portConstraint=eastwest;" parent="OYpLQ3D31SUY-RjP1pAd-245" vertex="1"><mxGeometry y="78" width="280" height="26" as="geometry"/></mxCell><mxCell id="OYpLQ3D31SUY-RjP1pAd-249" value="+ NumeroClases: int" style="text;strokeColor=none;fillColor=none;align=left;verticalAlign=top;spacingLeft=4;spacingRight=4;overflow=hidden;rotatable=0;points=[[0,0.5],[1,0.5]];portConstraint=eastwest;" parent="OYpLQ3D31SUY-RjP1pAd-245" vertex="1"><mxGeometry y="104" width="280" height="26" as="geometry"/></mxCell><mxCell id="OYpLQ3D31SUY-RjP1pAd-250" value="+ NumeroClasesSem: int" style="text;strokeColor=none;fillColor=none;align=left;verticalAlign=top;spacingLeft=4;spacingRight=4;overflow=hidden;rotatable=0;points=[[0,0.5],[1,0.5]];portConstraint=eastwest;" parent="OYpLQ3D31SUY-RjP1pAd-245" vertex="1"><mxGeometry y="130" width="280" height="26" as="geometry"/></mxCell><mxCell id="OYpLQ3D31SUY-RjP1pAd-251" value="+ Costo: decimal" style="text;strokeColor=none;fillColor=none;align=left;verticalAlign=top;spacingLeft=4;spacingRight=4;overflow=hidden;rotatable=0;points=[[0,0.5],[1,0.5]];portConstraint=eastwest;" parent="OYpLQ3D31SUY-RjP1pAd-245" vertex="1"><mxGeometry y="156" width="280" height="26" as="geometry"/></mxCell><mxCell id="OYpLQ3D31SUY-RjP1pAd-252" value="+ IdClase: string" style="text;strokeColor=none;fillColor=none;align=left;verticalAlign=top;spacingLeft=4;spacingRight=4;overflow=hidden;rotatable=0;points=[[0,0.5],[1,0.5]];portConstraint=eastwest;" parent="OYpLQ3D31SUY-RjP1pAd-245" vertex="1"><mxGeometry y="182" width="280" height="26" as="geometry"/></mxCell><mxCell id="OYpLQ3D31SUY-RjP1pAd-254" value="+ NombreClases: string" style="text;strokeColor=none;fillColor=none;align=left;verticalAlign=top;spacingLeft=4;spacingRight=4;overflow=hidden;rotatable=0;points=[[0,0.5],[1,0.5]];portConstraint=eastwest;" parent="OYpLQ3D31SUY-RjP1pAd-245" vertex="1"><mxGeometry y="208" width="280" height="26" as="geometry"/></mxCell><mxCell id="OYpLQ3D31SUY-RjP1pAd-255" value="" style="line;strokeWidth=1;fillColor=none;align=left;verticalAlign=middle;spacingTop=-1;spacingLeft=3;spacingRight=3;rotatable=0;labelPosition=right;points=[];portConstraint=eastwest;" parent="OYpLQ3D31SUY-RjP1pAd-245" vertex="1"><mxGeometry y="234" width="280" height="8" as="geometry"/></mxCell><mxCell id="OYpLQ3D31SUY-RjP1pAd-256" value="+ override Update(): void" style="text;strokeColor=none;fillColor=none;align=left;verticalAlign=top;spacingLeft=4;spacingRight=4;overflow=hidden;rotatable=0;points=[[0,0.5],[1,0.5]];portConstraint=eastwest;" parent="OYpLQ3D31SUY-RjP1pAd-245" vertex="1"><mxGeometry y="242" width="280" height="26" as="geometry"/></mxCell><mxCell id="OYpLQ3D31SUY-RjP1pAd-257" value="+ override Alta(): void" style="text;strokeColor=none;fillColor=none;align=left;verticalAlign=top;spacingLeft=4;spacingRight=4;overflow=hidden;rotatable=0;points=[[0,0.5],[1,0.5]];portConstraint=eastwest;" parent="OYpLQ3D31SUY-RjP1pAd-245" vertex="1"><mxGeometry y="268" width="280" height="26" as="geometry"/></mxCell><mxCell id="OYpLQ3D31SUY-RjP1pAd-258" value="+ override Delete(): void" style="text;strokeColor=none;fillColor=none;align=left;verticalAlign=top;spacingLeft=4;spacingRight=4;overflow=hidden;rotatable=0;points=[[0,0.5],[1,0.5]];portConstraint=eastwest;" parent="OYpLQ3D31SUY-RjP1pAd-245" vertex="1"><mxGeometry y="294" width="280" height="26" as="geometry"/></mxCell><mxCell id="OYpLQ3D31SUY-RjP1pAd-259" value="" style="endArrow=diamondThin;endFill=0;endSize=24;html=1;rounded=0;edgeStyle=orthogonalEdgeStyle;" parent="1" source="OYpLQ3D31SUY-RjP1pAd-83" target="OYpLQ3D31SUY-RjP1pAd-245" edge="1"><mxGeometry width="160" relative="1" as="geometry"><mxPoint x="2170" y="-58" as="sourcePoint"/><mxPoint x="2270" y="-287" as="targetPoint"/></mxGeometry></mxCell><mxCell id="OYpLQ3D31SUY-RjP1pAd-260" value="" style="endArrow=block;dashed=1;endFill=0;endSize=12;html=1;rounded=0;exitX=1;exitY=0.5;exitDx=0;exitDy=0;edgeStyle=orthogonalEdgeStyle;" parent="1" source="OYpLQ3D31SUY-RjP1pAd-68" target="OYpLQ3D31SUY-RjP1pAd-75" edge="1"><mxGeometry width="160" relative="1" as="geometry"><mxPoint x="2815" y="-178" as="sourcePoint"/><mxPoint x="2975" y="-178" as="targetPoint"/></mxGeometry></mxCell><mxCell id="OYpLQ3D31SUY-RjP1pAd-262" value="TipoInstructor" style="swimlane;fontStyle=1;align=center;verticalAlign=top;childLayout=stackLayout;horizontal=1;startSize=30;horizontalStack=0;resizeParent=1;resizeParentMax=0;resizeLast=0;collapsible=1;marginBottom=0;" parent="1" vertex="1"><mxGeometry x="1320" y="312" width="200" height="142" as="geometry"/></mxCell><mxCell id="OYpLQ3D31SUY-RjP1pAd-263" value="+ IdTipo: int" style="text;strokeColor=none;fillColor=none;align=left;verticalAlign=top;spacingLeft=4;spacingRight=4;overflow=hidden;rotatable=0;points=[[0,0.5],[1,0.5]];portConstraint=eastwest;" parent="OYpLQ3D31SUY-RjP1pAd-262" vertex="1"><mxGeometry y="30" width="200" height="26" as="geometry"/></mxCell><mxCell id="OYpLQ3D31SUY-RjP1pAd-264" value="+ NombreTipo: string" style="text;strokeColor=none;fillColor=none;align=left;verticalAlign=top;spacingLeft=4;spacingRight=4;overflow=hidden;rotatable=0;points=[[0,0.5],[1,0.5]];portConstraint=eastwest;" parent="OYpLQ3D31SUY-RjP1pAd-262" vertex="1"><mxGeometry y="56" width="200" height="26" as="geometry"/></mxCell><mxCell id="OYpLQ3D31SUY-RjP1pAd-265" value="+ DescripcionTipo: string" style="text;strokeColor=none;fillColor=none;align=left;verticalAlign=top;spacingLeft=4;spacingRight=4;overflow=hidden;rotatable=0;points=[[0,0.5],[1,0.5]];portConstraint=eastwest;" parent="OYpLQ3D31SUY-RjP1pAd-262" vertex="1"><mxGeometry y="82" width="200" height="26" as="geometry"/></mxCell><mxCell id="OYpLQ3D31SUY-RjP1pAd-266" value="" style="line;strokeWidth=1;fillColor=none;align=left;verticalAlign=middle;spacingTop=-1;spacingLeft=3;spacingRight=3;rotatable=0;labelPosition=right;points=[];portConstraint=eastwest;" parent="OYpLQ3D31SUY-RjP1pAd-262" vertex="1"><mxGeometry y="108" width="200" height="8" as="geometry"/></mxCell><mxCell id="OYpLQ3D31SUY-RjP1pAd-267" value="+" style="text;strokeColor=none;fillColor=none;align=left;verticalAlign=top;spacingLeft=4;spacingRight=4;overflow=hidden;rotatable=0;points=[[0,0.5],[1,0.5]];portConstraint=eastwest;" parent="OYpLQ3D31SUY-RjP1pAd-262" vertex="1"><mxGeometry y="116" width="200" height="26" as="geometry"/></mxCell><mxCell id="OYpLQ3D31SUY-RjP1pAd-268" value="" style="endArrow=block;dashed=1;endFill=0;endSize=12;html=1;rounded=0;edgeStyle=orthogonalEdgeStyle;" parent="1" source="OYpLQ3D31SUY-RjP1pAd-262" target="OYpLQ3D31SUY-RjP1pAd-35" edge="1"><mxGeometry width="160" relative="1" as="geometry"><mxPoint x="1285" y="300" as="sourcePoint"/><mxPoint x="1285" y="543" as="targetPoint"/></mxGeometry></mxCell><mxCell id="OYpLQ3D31SUY-RjP1pAd-269" value="" style="endArrow=block;dashed=1;endFill=0;endSize=12;html=1;rounded=0;edgeStyle=orthogonalEdgeStyle;" parent="1" source="OYpLQ3D31SUY-RjP1pAd-59" target="OYpLQ3D31SUY-RjP1pAd-17" edge="1"><mxGeometry width="160" relative="1" as="geometry"><mxPoint x="1450" y="-207.99999999999955" as="sourcePoint"/><mxPoint x="1540" y="-67.99999999999955" as="targetPoint"/></mxGeometry></mxCell><mxCell id="26" value="AbstMovimientos: abstract" style="swimlane;fontStyle=3;align=center;verticalAlign=top;childLayout=stackLayout;horizontal=1;startSize=30;horizontalStack=0;resizeParent=1;resizeParentMax=0;resizeLast=0;collapsible=1;marginBottom=0;" parent="1" vertex="1"><mxGeometry x="2300" y="-92" width="190" height="272" as="geometry"><mxRectangle x="40" y="660" width="140" height="40" as="alternateBounds"/></mxGeometry></mxCell><mxCell id="27" value="+ IdPago: int" style="text;strokeColor=none;fillColor=none;align=left;verticalAlign=top;spacingLeft=4;spacingRight=4;overflow=hidden;rotatable=0;points=[[0,0.5],[1,0.5]];portConstraint=eastwest;" parent="26" vertex="1"><mxGeometry y="30" width="190" height="26" as="geometry"/></mxCell><mxCell id="28" value="+ FechaRegistro: datetime" style="text;strokeColor=none;fillColor=none;align=left;verticalAlign=top;spacingLeft=4;spacingRight=4;overflow=hidden;rotatable=0;points=[[0,0.5],[1,0.5]];portConstraint=eastwest;" parent="26" vertex="1"><mxGeometry y="56" width="190" height="26" as="geometry"/></mxCell><mxCell id="29" value="+ IdUsuario: int" style="text;strokeColor=none;fillColor=none;align=left;verticalAlign=top;spacingLeft=4;spacingRight=4;overflow=hidden;rotatable=0;points=[[0,0.5],[1,0.5]];portConstraint=eastwest;" parent="26" vertex="1"><mxGeometry y="82" width="190" height="26" as="geometry"/></mxCell><mxCell id="30" value="+ NombreUsuario: string" style="text;strokeColor=none;fillColor=none;align=left;verticalAlign=top;spacingLeft=4;spacingRight=4;overflow=hidden;rotatable=0;points=[[0,0.5],[1,0.5]];portConstraint=eastwest;" parent="26" vertex="1"><mxGeometry y="108" width="190" height="26" as="geometry"/></mxCell><mxCell id="33" value="+ Otros: bool" style="text;strokeColor=none;fillColor=none;align=left;verticalAlign=top;spacingLeft=4;spacingRight=4;overflow=hidden;rotatable=0;points=[[0,0.5],[1,0.5]];portConstraint=eastwest;" parent="26" vertex="1"><mxGeometry y="134" width="190" height="26" as="geometry"/></mxCell><mxCell id="36" value="+ Concepto: string" style="text;strokeColor=none;fillColor=none;align=left;verticalAlign=top;spacingLeft=4;spacingRight=4;overflow=hidden;rotatable=0;points=[[0,0.5],[1,0.5]];portConstraint=eastwest;" parent="26" vertex="1"><mxGeometry y="160" width="190" height="26" as="geometry"/></mxCell><mxCell id="37" value="+ NumeroRecibo: string" style="text;strokeColor=none;fillColor=none;align=left;verticalAlign=top;spacingLeft=4;spacingRight=4;overflow=hidden;rotatable=0;points=[[0,0.5],[1,0.5]];portConstraint=eastwest;" parent="26" vertex="1"><mxGeometry y="186" width="190" height="26" as="geometry"/></mxCell><mxCell id="38" value="+ Monto: decimal" style="text;strokeColor=none;fillColor=none;align=left;verticalAlign=top;spacingLeft=4;spacingRight=4;overflow=hidden;rotatable=0;points=[[0,0.5],[1,0.5]];portConstraint=eastwest;" parent="26" vertex="1"><mxGeometry y="212" width="190" height="26" as="geometry"/></mxCell><mxCell id="39" value="" style="line;strokeWidth=1;fillColor=none;align=left;verticalAlign=middle;spacingTop=-1;spacingLeft=3;spacingRight=3;rotatable=0;labelPosition=right;points=[];portConstraint=eastwest;" parent="26" vertex="1"><mxGeometry y="238" width="190" height="8" as="geometry"/></mxCell><mxCell id="42" value="+" style="text;strokeColor=none;fillColor=none;align=left;verticalAlign=top;spacingLeft=4;spacingRight=4;overflow=hidden;rotatable=0;points=[[0,0.5],[1,0.5]];portConstraint=eastwest;" parent="26" vertex="1"><mxGeometry y="246" width="190" height="26" as="geometry"/></mxCell><mxCell id="47" value="" style="endArrow=block;dashed=1;endFill=0;endSize=12;html=1;edgeStyle=orthogonalEdgeStyle;" parent="1" source="26" target="OYpLQ3D31SUY-RjP1pAd-134" edge="1"><mxGeometry width="160" relative="1" as="geometry"><mxPoint x="2535" y="56" as="sourcePoint"/><mxPoint x="2695" y="56" as="targetPoint"/></mxGeometry></mxCell><mxCell id="48" value="" style="endArrow=block;dashed=1;endFill=0;endSize=12;html=1;edgeStyle=orthogonalEdgeStyle;" parent="1" source="26" target="OYpLQ3D31SUY-RjP1pAd-143" edge="1"><mxGeometry width="160" relative="1" as="geometry"><mxPoint x="2500" y="86" as="sourcePoint"/><mxPoint x="2630" y="11" as="targetPoint"/><Array as="points"><mxPoint x="2550" y="80"/><mxPoint x="2550" y="214"/></Array></mxGeometry></mxCell><mxCell id="60" value="Ventas" style="swimlane;fontStyle=1;align=center;verticalAlign=top;childLayout=stackLayout;horizontal=1;startSize=30;horizontalStack=0;resizeParent=1;resizeParentMax=0;resizeLast=0;collapsible=1;marginBottom=0;" parent="1" vertex="1"><mxGeometry x="2610" y="328" width="190" height="168" as="geometry"><mxRectangle x="40" y="660" width="140" height="40" as="alternateBounds"/></mxGeometry></mxCell><mxCell id="61" value="+ IdVenta" style="text;strokeColor=none;fillColor=none;align=left;verticalAlign=top;spacingLeft=4;spacingRight=4;overflow=hidden;rotatable=0;points=[[0,0.5],[1,0.5]];portConstraint=eastwest;" parent="60" vertex="1"><mxGeometry y="30" width="190" height="26" as="geometry"/></mxCell><mxCell id="62" value="+ FechaVenta: datetime" style="text;strokeColor=none;fillColor=none;align=left;verticalAlign=top;spacingLeft=4;spacingRight=4;overflow=hidden;rotatable=0;points=[[0,0.5],[1,0.5]];portConstraint=eastwest;" parent="60" vertex="1"><mxGeometry y="56" width="190" height="26" as="geometry"/></mxCell><mxCell id="63" value="+ Concepto: string" style="text;strokeColor=none;fillColor=none;align=left;verticalAlign=top;spacingLeft=4;spacingRight=4;overflow=hidden;rotatable=0;points=[[0,0.5],[1,0.5]];portConstraint=eastwest;" parent="60" vertex="1"><mxGeometry y="82" width="190" height="26" as="geometry"/></mxCell><mxCell id="64" value="+ Costo:int" style="text;strokeColor=none;fillColor=none;align=left;verticalAlign=top;spacingLeft=4;spacingRight=4;overflow=hidden;rotatable=0;points=[[0,0.5],[1,0.5]];portConstraint=eastwest;" parent="60" vertex="1"><mxGeometry y="108" width="190" height="26" as="geometry"/></mxCell><mxCell id="65" value="" style="line;strokeWidth=1;fillColor=none;align=left;verticalAlign=middle;spacingTop=-1;spacingLeft=3;spacingRight=3;rotatable=0;labelPosition=right;points=[];portConstraint=eastwest;" parent="60" vertex="1"><mxGeometry y="134" width="190" height="8" as="geometry"/></mxCell><mxCell id="66" value="+ Alta(): void" style="text;strokeColor=none;fillColor=none;align=left;verticalAlign=top;spacingLeft=4;spacingRight=4;overflow=hidden;rotatable=0;points=[[0,0.5],[1,0.5]];portConstraint=eastwest;" parent="60" vertex="1"><mxGeometry y="142" width="190" height="26" as="geometry"/></mxCell><mxCell id="83" value="ClienteValidation" style="swimlane;fontStyle=1;align=center;verticalAlign=top;childLayout=stackLayout;horizontal=1;startSize=26;horizontalStack=0;resizeParent=1;resizeParentMax=0;resizeLast=0;collapsible=1;marginBottom=0;" parent="1" vertex="1"><mxGeometry x="1395" y="-578" width="160" height="286" as="geometry"/></mxCell><mxCell id="84" value="CondiciónEspecial" style="text;strokeColor=none;fillColor=none;align=left;verticalAlign=top;spacingLeft=4;spacingRight=4;overflow=hidden;rotatable=0;points=[[0,0.5],[1,0.5]];portConstraint=eastwest;" parent="83" vertex="1"><mxGeometry y="26" width="160" height="26" as="geometry"/></mxCell><mxCell id="85" value="Activo" style="text;strokeColor=none;fillColor=none;align=left;verticalAlign=top;spacingLeft=4;spacingRight=4;overflow=hidden;rotatable=0;points=[[0,0.5],[1,0.5]];portConstraint=eastwest;" parent="83" vertex="1"><mxGeometry y="52" width="160" height="26" as="geometry"/></mxCell><mxCell id="86" value="DeudaCliente" style="text;strokeColor=none;fillColor=none;align=left;verticalAlign=top;spacingLeft=4;spacingRight=4;overflow=hidden;rotatable=0;points=[[0,0.5],[1,0.5]];portConstraint=eastwest;" parent="83" vertex="1"><mxGeometry y="78" width="160" height="26" as="geometry"/></mxCell><mxCell id="87" value="MedioConocido" style="text;strokeColor=none;fillColor=none;align=left;verticalAlign=top;spacingLeft=4;spacingRight=4;overflow=hidden;rotatable=0;points=[[0,0.5],[1,0.5]];portConstraint=eastwest;" parent="83" vertex="1"><mxGeometry y="104" width="160" height="26" as="geometry"/></mxCell><mxCell id="88" value="ClasesTotatesDisponibles" style="text;strokeColor=none;fillColor=none;align=left;verticalAlign=top;spacingLeft=4;spacingRight=4;overflow=hidden;rotatable=0;points=[[0,0.5],[1,0.5]];portConstraint=eastwest;" parent="83" vertex="1"><mxGeometry y="130" width="160" height="26" as="geometry"/></mxCell><mxCell id="89" value="ClasesSemanaDisponiblres" style="text;strokeColor=none;fillColor=none;align=left;verticalAlign=top;spacingLeft=4;spacingRight=4;overflow=hidden;rotatable=0;points=[[0,0.5],[1,0.5]];portConstraint=eastwest;" parent="83" vertex="1"><mxGeometry y="156" width="160" height="26" as="geometry"/></mxCell><mxCell id="90" value="Descuento" style="text;strokeColor=none;fillColor=none;align=left;verticalAlign=top;spacingLeft=4;spacingRight=4;overflow=hidden;rotatable=0;points=[[0,0.5],[1,0.5]];portConstraint=eastwest;" parent="83" vertex="1"><mxGeometry y="182" width="160" height="26" as="geometry"/></mxCell><mxCell id="91" value="Nino" style="text;strokeColor=none;fillColor=none;align=left;verticalAlign=top;spacingLeft=4;spacingRight=4;overflow=hidden;rotatable=0;points=[[0,0.5],[1,0.5]];portConstraint=eastwest;" parent="83" vertex="1"><mxGeometry y="208" width="160" height="26" as="geometry"/></mxCell><mxCell id="92" value="IdPaquete" style="text;strokeColor=none;fillColor=none;align=left;verticalAlign=top;spacingLeft=4;spacingRight=4;overflow=hidden;rotatable=0;points=[[0,0.5],[1,0.5]];portConstraint=eastwest;" parent="83" vertex="1"><mxGeometry y="234" width="160" height="26" as="geometry"/></mxCell><mxCell id="93" value="IdTipoCliente" style="text;strokeColor=none;fillColor=none;align=left;verticalAlign=top;spacingLeft=4;spacingRight=4;overflow=hidden;rotatable=0;points=[[0,0.5],[1,0.5]];portConstraint=eastwest;" parent="83" vertex="1"><mxGeometry y="260" width="160" height="26" as="geometry"/></mxCell><mxCell id="94" value="" style="endArrow=block;dashed=1;endFill=0;endSize=12;html=1;rounded=0;edgeStyle=orthogonalEdgeStyle;" parent="1" source="83" target="OYpLQ3D31SUY-RjP1pAd-17" edge="1"><mxGeometry width="160" relative="1" as="geometry"><mxPoint x="1440" y="-448" as="sourcePoint"/><mxPoint x="1480" y="-349" as="targetPoint"/></mxGeometry></mxCell><mxCell id="95" value="InstructorValidation" style="swimlane;fontStyle=1;align=center;verticalAlign=top;childLayout=stackLayout;horizontal=1;startSize=26;horizontalStack=0;resizeParent=1;resizeParentMax=0;resizeLast=0;collapsible=1;marginBottom=0;" parent="1" vertex="1"><mxGeometry x="1940" y="152" width="160" height="208" as="geometry"/></mxCell><mxCell id="96" value="HoraEntrada" style="text;strokeColor=none;fillColor=none;align=left;verticalAlign=top;spacingLeft=4;spacingRight=4;overflow=hidden;rotatable=0;points=[[0,0.5],[1,0.5]];portConstraint=eastwest;" parent="95" vertex="1"><mxGeometry y="26" width="160" height="26" as="geometry"/></mxCell><mxCell id="97" value="HoraSalida" style="text;strokeColor=none;fillColor=none;align=left;verticalAlign=top;spacingLeft=4;spacingRight=4;overflow=hidden;rotatable=0;points=[[0,0.5],[1,0.5]];portConstraint=eastwest;" parent="95" vertex="1"><mxGeometry y="52" width="160" height="26" as="geometry"/></mxCell><mxCell id="98" value="DiasATrabajar" style="text;strokeColor=none;fillColor=none;align=left;verticalAlign=top;spacingLeft=4;spacingRight=4;overflow=hidden;rotatable=0;points=[[0,0.5],[1,0.5]];portConstraint=eastwest;" parent="95" vertex="1"><mxGeometry y="78" width="160" height="26" as="geometry"/></mxCell><mxCell id="99" value="DiasTrabajados" style="text;strokeColor=none;fillColor=none;align=left;verticalAlign=top;spacingLeft=4;spacingRight=4;overflow=hidden;rotatable=0;points=[[0,0.5],[1,0.5]];portConstraint=eastwest;" parent="95" vertex="1"><mxGeometry y="104" width="160" height="26" as="geometry"/></mxCell><mxCell id="100" value="Sueldo" style="text;strokeColor=none;fillColor=none;align=left;verticalAlign=top;spacingLeft=4;spacingRight=4;overflow=hidden;rotatable=0;points=[[0,0.5],[1,0.5]];portConstraint=eastwest;" parent="95" vertex="1"><mxGeometry y="130" width="160" height="26" as="geometry"/></mxCell><mxCell id="101" value="SuedoDescontar" style="text;strokeColor=none;fillColor=none;align=left;verticalAlign=top;spacingLeft=4;spacingRight=4;overflow=hidden;rotatable=0;points=[[0,0.5],[1,0.5]];portConstraint=eastwest;" parent="95" vertex="1"><mxGeometry y="156" width="160" height="26" as="geometry"/></mxCell><mxCell id="102" value="TipoInstructor" style="text;strokeColor=none;fillColor=none;align=left;verticalAlign=top;spacingLeft=4;spacingRight=4;overflow=hidden;rotatable=0;points=[[0,0.5],[1,0.5]];portConstraint=eastwest;" parent="95" vertex="1"><mxGeometry y="182" width="160" height="26" as="geometry"/></mxCell><mxCell id="104" value="" style="endArrow=block;dashed=1;endFill=0;endSize=12;html=1;rounded=0;edgeStyle=orthogonalEdgeStyle;" parent="1" source="95" target="OYpLQ3D31SUY-RjP1pAd-35" edge="1"><mxGeometry width="160" relative="1" as="geometry"><mxPoint x="2040" y="32" as="sourcePoint"/><mxPoint x="2170" y="131" as="targetPoint"/></mxGeometry></mxCell><mxCell id="105" value="UsuarioValidation" style="swimlane;fontStyle=1;align=center;verticalAlign=top;childLayout=stackLayout;horizontal=1;startSize=26;horizontalStack=0;resizeParent=1;resizeParentMax=0;resizeLast=0;collapsible=1;marginBottom=0;" parent="1" vertex="1"><mxGeometry x="1350" y="737" width="140" height="78" as="geometry"/></mxCell><mxCell id="106" value="Username" style="text;strokeColor=none;fillColor=none;align=left;verticalAlign=top;spacingLeft=4;spacingRight=4;overflow=hidden;rotatable=0;points=[[0,0.5],[1,0.5]];portConstraint=eastwest;" parent="105" vertex="1"><mxGeometry y="26" width="140" height="26" as="geometry"/></mxCell><mxCell id="107" value="Password" style="text;strokeColor=none;fillColor=none;align=left;verticalAlign=top;spacingLeft=4;spacingRight=4;overflow=hidden;rotatable=0;points=[[0,0.5],[1,0.5]];portConstraint=eastwest;" parent="105" vertex="1"><mxGeometry y="52" width="140" height="26" as="geometry"/></mxCell><mxCell id="113" value="ClienteRentaValidation" style="swimlane;fontStyle=1;align=center;verticalAlign=top;childLayout=stackLayout;horizontal=1;startSize=26;horizontalStack=0;resizeParent=1;resizeParentMax=0;resizeLast=0;collapsible=1;marginBottom=0;" parent="1" vertex="1"><mxGeometry x="1730" y="1022" width="140" height="52" as="geometry"/></mxCell><mxCell id="114" value="DeudaCliente" style="text;strokeColor=none;fillColor=none;align=left;verticalAlign=top;spacingLeft=4;spacingRight=4;overflow=hidden;rotatable=0;points=[[0,0.5],[1,0.5]];portConstraint=eastwest;" parent="113" vertex="1"><mxGeometry y="26" width="140" height="26" as="geometry"/></mxCell><mxCell id="116" value="" style="endArrow=block;dashed=1;endFill=0;endSize=12;html=1;rounded=0;edgeStyle=orthogonalEdgeStyle;" parent="1" source="113" target="OYpLQ3D31SUY-RjP1pAd-115" edge="1"><mxGeometry width="160" relative="1" as="geometry"><mxPoint x="1800" y="1092" as="sourcePoint"/><mxPoint x="1860" y="1160" as="targetPoint"/></mxGeometry></mxCell><mxCell id="117" value="" style="endArrow=block;dashed=1;endFill=0;endSize=12;html=1;rounded=0;edgeStyle=orthogonalEdgeStyle;" parent="1" source="105" target="OYpLQ3D31SUY-RjP1pAd-107" edge="1"><mxGeometry width="160" relative="1" as="geometry"><mxPoint x="1570" y="782" as="sourcePoint"/><mxPoint x="1630" y="850" as="targetPoint"/></mxGeometry></mxCell><mxCell id="118" value="InitInfo" style="swimlane;fontStyle=1;align=center;verticalAlign=top;childLayout=stackLayout;horizontal=1;startSize=26;horizontalStack=0;resizeParent=1;resizeParentMax=0;resizeLast=0;collapsible=1;marginBottom=0;" parent="1" vertex="1"><mxGeometry x="490" y="-461" width="240" height="320" as="geometry"/></mxCell><mxCell id="119" value="+ ListaClientes: List&lt;Cliente&gt;" style="text;strokeColor=none;fillColor=none;align=left;verticalAlign=top;spacingLeft=4;spacingRight=4;overflow=hidden;rotatable=0;points=[[0,0.5],[1,0.5]];portConstraint=eastwest;" parent="118" vertex="1"><mxGeometry y="26" width="240" height="26" as="geometry"/></mxCell><mxCell id="123" value="+ ListaInstructor: List&lt;Instructor&gt;" style="text;strokeColor=none;fillColor=none;align=left;verticalAlign=top;spacingLeft=4;spacingRight=4;overflow=hidden;rotatable=0;points=[[0,0.5],[1,0.5]];portConstraint=eastwest;" parent="118" vertex="1"><mxGeometry y="52" width="240" height="26" as="geometry"/></mxCell><mxCell id="124" value="+ ListaUsuarios: List&lt;Usuario&gt;" style="text;strokeColor=none;fillColor=none;align=left;verticalAlign=top;spacingLeft=4;spacingRight=4;overflow=hidden;rotatable=0;points=[[0,0.5],[1,0.5]];portConstraint=eastwest;" parent="118" vertex="1"><mxGeometry y="78" width="240" height="26" as="geometry"/></mxCell><mxCell id="125" value="+ ListaClientesRenta: List&lt;ClienteRenta&gt;" style="text;strokeColor=none;fillColor=none;align=left;verticalAlign=top;spacingLeft=4;spacingRight=4;overflow=hidden;rotatable=0;points=[[0,0.5],[1,0.5]];portConstraint=eastwest;" parent="118" vertex="1"><mxGeometry y="104" width="240" height="26" as="geometry"/></mxCell><mxCell id="126" value="+ ListaDePaquetes: List&lt;Paquete&gt;" style="text;strokeColor=none;fillColor=none;align=left;verticalAlign=top;spacingLeft=4;spacingRight=4;overflow=hidden;rotatable=0;points=[[0,0.5],[1,0.5]];portConstraint=eastwest;" parent="118" vertex="1"><mxGeometry y="130" width="240" height="26" as="geometry"/></mxCell><mxCell id="127" value="+ ListaTipoCliente: List&lt;Tipo&gt;" style="text;strokeColor=none;fillColor=none;align=left;verticalAlign=top;spacingLeft=4;spacingRight=4;overflow=hidden;rotatable=0;points=[[0,0.5],[1,0.5]];portConstraint=eastwest;" parent="118" vertex="1"><mxGeometry y="156" width="240" height="26" as="geometry"/></mxCell><mxCell id="128" value="+ ListaTipoIInstructor: List&lt;Tipo&gt;" style="text;strokeColor=none;fillColor=none;align=left;verticalAlign=top;spacingLeft=4;spacingRight=4;overflow=hidden;rotatable=0;points=[[0,0.5],[1,0.5]];portConstraint=eastwest;" parent="118" vertex="1"><mxGeometry y="182" width="240" height="26" as="geometry"/></mxCell><mxCell id="130" value="+ ListaLockersOpen: List&lt;Locker&gt;" style="text;strokeColor=none;fillColor=none;align=left;verticalAlign=top;spacingLeft=4;spacingRight=4;overflow=hidden;rotatable=0;points=[[0,0.5],[1,0.5]];portConstraint=eastwest;" parent="118" vertex="1"><mxGeometry y="208" width="240" height="26" as="geometry"/></mxCell><mxCell id="131" value="+ ListaLockers: List&lt;Locker&gt;" style="text;strokeColor=none;fillColor=none;align=left;verticalAlign=top;spacingLeft=4;spacingRight=4;overflow=hidden;rotatable=0;points=[[0,0.5],[1,0.5]];portConstraint=eastwest;" parent="118" vertex="1"><mxGeometry y="234" width="240" height="26" as="geometry"/></mxCell><mxCell id="129" value="+ ListaClases: List&lt;Clase&gt;" style="text;strokeColor=none;fillColor=none;align=left;verticalAlign=top;spacingLeft=4;spacingRight=4;overflow=hidden;rotatable=0;points=[[0,0.5],[1,0.5]];portConstraint=eastwest;" parent="118" vertex="1"><mxGeometry y="260" width="240" height="26" as="geometry"/></mxCell><mxCell id="120" value="" style="line;strokeWidth=1;fillColor=none;align=left;verticalAlign=middle;spacingTop=-1;spacingLeft=3;spacingRight=3;rotatable=0;labelPosition=right;points=[];portConstraint=eastwest;" parent="118" vertex="1"><mxGeometry y="286" width="240" height="8" as="geometry"/></mxCell><mxCell id="121" value="+ GetAllInfo: Task&lt;bool&gt;" style="text;strokeColor=none;fillColor=none;align=left;verticalAlign=top;spacingLeft=4;spacingRight=4;overflow=hidden;rotatable=0;points=[[0,0.5],[1,0.5]];portConstraint=eastwest;" parent="118" vertex="1"><mxGeometry y="294" width="240" height="26" as="geometry"/></mxCell><mxCell id="141" value="AbstOtrosTipos" style="swimlane;fontStyle=1;align=center;verticalAlign=top;childLayout=stackLayout;horizontal=1;startSize=26;horizontalStack=0;resizeParent=1;resizeParentMax=0;resizeLast=0;collapsible=1;marginBottom=0;" parent="1" vertex="1"><mxGeometry x="2420" y="-764" width="160" height="138" as="geometry"/></mxCell><mxCell id="142" value="+" style="text;strokeColor=none;fillColor=none;align=left;verticalAlign=top;spacingLeft=4;spacingRight=4;overflow=hidden;rotatable=0;points=[[0,0.5],[1,0.5]];portConstraint=eastwest;" parent="141" vertex="1"><mxGeometry y="26" width="160" height="26" as="geometry"/></mxCell><mxCell id="143" value="" style="line;strokeWidth=1;fillColor=none;align=left;verticalAlign=middle;spacingTop=-1;spacingLeft=3;spacingRight=3;rotatable=0;labelPosition=right;points=[];portConstraint=eastwest;" parent="141" vertex="1"><mxGeometry y="52" width="160" height="8" as="geometry"/></mxCell><mxCell id="145" value="+ Update()" style="text;strokeColor=none;fillColor=none;align=left;verticalAlign=top;spacingLeft=4;spacingRight=4;overflow=hidden;rotatable=0;points=[[0,0.5],[1,0.5]];portConstraint=eastwest;" parent="141" vertex="1"><mxGeometry y="60" width="160" height="26" as="geometry"/></mxCell><mxCell id="146" value="+ Delete():" style="text;strokeColor=none;fillColor=none;align=left;verticalAlign=top;spacingLeft=4;spacingRight=4;overflow=hidden;rotatable=0;points=[[0,0.5],[1,0.5]];portConstraint=eastwest;" parent="141" vertex="1"><mxGeometry y="86" width="160" height="26" as="geometry"/></mxCell><mxCell id="144" value="+ Alta()" style="text;strokeColor=none;fillColor=none;align=left;verticalAlign=top;spacingLeft=4;spacingRight=4;overflow=hidden;rotatable=0;points=[[0,0.5],[1,0.5]];portConstraint=eastwest;" parent="141" vertex="1"><mxGeometry y="112" width="160" height="26" as="geometry"/></mxCell><mxCell id="147" value="" style="endArrow=block;dashed=1;endFill=0;endSize=12;html=1;rounded=0;edgeStyle=orthogonalEdgeStyle;" parent="1" source="OYpLQ3D31SUY-RjP1pAd-245" target="141" edge="1"><mxGeometry width="160" relative="1" as="geometry"><mxPoint x="2320" y="-820" as="sourcePoint"/><mxPoint x="2280" y="-625" as="targetPoint"/><Array as="points"><mxPoint x="2150" y="-640"/></Array></mxGeometry></mxCell><mxCell id="150" value="" style="endArrow=block;dashed=1;endFill=0;endSize=12;html=1;edgeStyle=orthogonalEdgeStyle;" parent="1" source="OYpLQ3D31SUY-RjP1pAd-83" target="141" edge="1"><mxGeometry width="160" relative="1" as="geometry"><mxPoint x="2330" y="-650" as="sourcePoint"/><mxPoint x="2490" y="-650" as="targetPoint"/></mxGeometry></mxCell><mxCell id="151" value="" style="endArrow=block;dashed=1;endFill=0;endSize=12;html=1;edgeStyle=orthogonalEdgeStyle;" parent="1" source="OYpLQ3D31SUY-RjP1pAd-65" target="141" edge="1"><mxGeometry width="160" relative="1" as="geometry"><mxPoint x="2810" y="-521" as="sourcePoint"/><mxPoint x="2850" y="-662" as="targetPoint"/><Array as="points"><mxPoint x="2820" y="-640"/></Array></mxGeometry></mxCell><mxCell id="155" value="" style="endArrow=block;dashed=1;endFill=0;endSize=12;html=1;edgeStyle=orthogonalEdgeStyle;" parent="1" source="26" target="60" edge="1"><mxGeometry width="160" relative="1" as="geometry"><mxPoint x="2500" y="86" as="sourcePoint"/><mxPoint x="2590" y="224" as="targetPoint"/><Array as="points"><mxPoint x="2550" y="76"/><mxPoint x="2550" y="412"/></Array></mxGeometry></mxCell><mxCell id="157" value="Use" style="endArrow=open;endSize=12;dashed=1;html=1;edgeStyle=orthogonalEdgeStyle;" parent="1" target="OYpLQ3D31SUY-RjP1pAd-162" edge="1"><mxGeometry width="160" relative="1" as="geometry"><mxPoint x="2180" y="-120" as="sourcePoint"/><mxPoint x="2250" y="50" as="targetPoint"/></mxGeometry></mxCell><mxCell id="158" value="" style="endArrow=none;dashed=1;html=1;dashPattern=1 3;strokeWidth=2;edgeStyle=orthogonalEdgeStyle;" parent="1" target="OYpLQ3D31SUY-RjP1pAd-245" edge="1"><mxGeometry width="50" height="50" relative="1" as="geometry"><mxPoint x="2180" y="-120" as="sourcePoint"/><mxPoint x="2120" y="-100" as="targetPoint"/></mxGeometry></mxCell><mxCell id="159" value="" style="endArrow=none;dashed=1;html=1;dashPattern=1 3;strokeWidth=2;edgeStyle=orthogonalEdgeStyle;" parent="1" target="OYpLQ3D31SUY-RjP1pAd-83" edge="1"><mxGeometry width="50" height="50" relative="1" as="geometry"><mxPoint x="2180" y="-120" as="sourcePoint"/><mxPoint x="2170" y="-178" as="targetPoint"/></mxGeometry></mxCell><mxCell id="160" value="" style="endArrow=none;dashed=1;html=1;dashPattern=1 3;strokeWidth=2;edgeStyle=orthogonalEdgeStyle;" parent="1" target="OYpLQ3D31SUY-RjP1pAd-65" edge="1"><mxGeometry width="50" height="50" relative="1" as="geometry"><mxPoint x="2180" y="-120" as="sourcePoint"/><mxPoint x="2510" y="-165.00000000000023" as="targetPoint"/></mxGeometry></mxCell><mxCell id="161" value="AppConfig" style="swimlane;fontStyle=1;align=center;verticalAlign=top;childLayout=stackLayout;horizontal=1;startSize=26;horizontalStack=0;resizeParent=1;resizeParentMax=0;resizeLast=0;collapsible=1;marginBottom=0;" parent="1" vertex="1"><mxGeometry x="775" y="-900" width="270" height="112" as="geometry"/></mxCell><mxCell id="162" value="+" style="text;strokeColor=none;fillColor=none;align=left;verticalAlign=top;spacingLeft=4;spacingRight=4;overflow=hidden;rotatable=0;points=[[0,0.5],[1,0.5]];portConstraint=eastwest;" parent="161" vertex="1"><mxGeometry y="26" width="270" height="26" as="geometry"/></mxCell><mxCell id="163" value="" style="line;strokeWidth=1;fillColor=none;align=left;verticalAlign=middle;spacingTop=-1;spacingLeft=3;spacingRight=3;rotatable=0;labelPosition=right;points=[];portConstraint=eastwest;" parent="161" vertex="1"><mxGeometry y="52" width="270" height="8" as="geometry"/></mxCell><mxCell id="165" value="+ UpdateConfig(ConfigFields: appConfig):  void" style="text;strokeColor=none;fillColor=none;align=left;verticalAlign=top;spacingLeft=4;spacingRight=4;overflow=hidden;rotatable=0;points=[[0,0.5],[1,0.5]];portConstraint=eastwest;" parent="161" vertex="1"><mxGeometry y="60" width="270" height="26" as="geometry"/></mxCell><mxCell id="P3IwJ0CeBcSDWGgDDLUP-184" value="+ GetConfig(): ConfigFieldls" style="text;strokeColor=none;fillColor=none;align=left;verticalAlign=top;spacingLeft=4;spacingRight=4;overflow=hidden;rotatable=0;points=[[0,0.5],[1,0.5]];portConstraint=eastwest;" parent="161" vertex="1"><mxGeometry y="86" width="270" height="26" as="geometry"/></mxCell><mxCell id="P3IwJ0CeBcSDWGgDDLUP-167" value="Espacio" style="swimlane;fontStyle=1;align=center;verticalAlign=top;childLayout=stackLayout;horizontal=1;startSize=30;horizontalStack=0;resizeParent=1;resizeParentMax=0;resizeLast=0;collapsible=1;marginBottom=0;" parent="1" vertex="1"><mxGeometry x="2960" y="-744" width="190" height="194" as="geometry"><mxRectangle x="40" y="660" width="140" height="40" as="alternateBounds"/></mxGeometry></mxCell><mxCell id="P3IwJ0CeBcSDWGgDDLUP-168" value="+ IdEspacio: int" style="text;strokeColor=none;fillColor=none;align=left;verticalAlign=top;spacingLeft=4;spacingRight=4;overflow=hidden;rotatable=0;points=[[0,0.5],[1,0.5]];portConstraint=eastwest;" parent="P3IwJ0CeBcSDWGgDDLUP-167" vertex="1"><mxGeometry y="30" width="190" height="26" as="geometry"/></mxCell><mxCell id="P3IwJ0CeBcSDWGgDDLUP-169" value="+ NombreEspacio: string" style="text;strokeColor=none;fillColor=none;align=left;verticalAlign=top;spacingLeft=4;spacingRight=4;overflow=hidden;rotatable=0;points=[[0,0.5],[1,0.5]];portConstraint=eastwest;" parent="P3IwJ0CeBcSDWGgDDLUP-167" vertex="1"><mxGeometry y="56" width="190" height="26" as="geometry"/></mxCell><mxCell id="P3IwJ0CeBcSDWGgDDLUP-170" value="+ Descripción: string" style="text;strokeColor=none;fillColor=none;align=left;verticalAlign=top;spacingLeft=4;spacingRight=4;overflow=hidden;rotatable=0;points=[[0,0.5],[1,0.5]];portConstraint=eastwest;" parent="P3IwJ0CeBcSDWGgDDLUP-167" vertex="1"><mxGeometry y="82" width="190" height="26" as="geometry"/></mxCell><mxCell id="P3IwJ0CeBcSDWGgDDLUP-171" value="" style="line;strokeWidth=1;fillColor=none;align=left;verticalAlign=middle;spacingTop=-1;spacingLeft=3;spacingRight=3;rotatable=0;labelPosition=right;points=[];portConstraint=eastwest;" parent="P3IwJ0CeBcSDWGgDDLUP-167" vertex="1"><mxGeometry y="108" width="190" height="8" as="geometry"/></mxCell><mxCell id="P3IwJ0CeBcSDWGgDDLUP-173" value="+ Update(): void" style="text;strokeColor=none;fillColor=none;align=left;verticalAlign=top;spacingLeft=4;spacingRight=4;overflow=hidden;rotatable=0;points=[[0,0.5],[1,0.5]];portConstraint=eastwest;" parent="P3IwJ0CeBcSDWGgDDLUP-167" vertex="1"><mxGeometry y="116" width="190" height="26" as="geometry"/></mxCell><mxCell id="P3IwJ0CeBcSDWGgDDLUP-175" value="+ Delete(): void" style="text;strokeColor=none;fillColor=none;align=left;verticalAlign=top;spacingLeft=4;spacingRight=4;overflow=hidden;rotatable=0;points=[[0,0.5],[1,0.5]];portConstraint=eastwest;" parent="P3IwJ0CeBcSDWGgDDLUP-167" vertex="1"><mxGeometry y="142" width="190" height="26" as="geometry"/></mxCell><mxCell id="P3IwJ0CeBcSDWGgDDLUP-174" value="+ Alta(): void" style="text;strokeColor=none;fillColor=none;align=left;verticalAlign=top;spacingLeft=4;spacingRight=4;overflow=hidden;rotatable=0;points=[[0,0.5],[1,0.5]];portConstraint=eastwest;" parent="P3IwJ0CeBcSDWGgDDLUP-167" vertex="1"><mxGeometry y="168" width="190" height="26" as="geometry"/></mxCell><mxCell id="P3IwJ0CeBcSDWGgDDLUP-176" value="" style="endArrow=block;dashed=1;endFill=0;endSize=12;html=1;rounded=0;edgeStyle=orthogonalEdgeStyle;" parent="1" source="P3IwJ0CeBcSDWGgDDLUP-167" target="141" edge="1"><mxGeometry width="160" relative="1" as="geometry"><mxPoint x="2750" y="-808" as="sourcePoint"/><mxPoint x="2910" y="-808" as="targetPoint"/></mxGeometry></mxCell><mxCell id="abBTHbhudsCi1P9fZVan-166" value="" style="endArrow=block;dashed=1;endFill=0;endSize=12;html=1;rounded=0;edgeStyle=orthogonalEdgeStyle;" parent="1" source="OYpLQ3D31SUY-RjP1pAd-98" target="141" edge="1"><mxGeometry width="160" relative="1" as="geometry"><mxPoint x="1980" y="-568" as="sourcePoint"/><mxPoint x="2250" y="-700" as="targetPoint"/><Array as="points"><mxPoint x="1980" y="-700"/></Array></mxGeometry></mxCell><mxCell id="abBTHbhudsCi1P9fZVan-168" value="" style="endArrow=none;dashed=1;html=1;dashPattern=1 3;strokeWidth=2;edgeStyle=orthogonalEdgeStyle;" parent="1" target="OYpLQ3D31SUY-RjP1pAd-98" edge="1"><mxGeometry width="50" height="50" relative="1" as="geometry"><mxPoint x="2180" y="-18" as="sourcePoint"/><mxPoint x="2165" y="-86" as="targetPoint"/></mxGeometry></mxCell><mxCell id="168" value="Personal" style="swimlane;fontStyle=1;align=center;verticalAlign=top;childLayout=stackLayout;horizontal=1;startSize=26;horizontalStack=0;resizeParent=1;resizeParentMax=0;resizeLast=0;collapsible=1;marginBottom=0;" parent="1" vertex="1"><mxGeometry x="1920" y="1200" width="200" height="164" as="geometry"><mxRectangle x="360" y="298" width="90" height="26" as="alternateBounds"/></mxGeometry></mxCell><mxCell id="170" value="+ FechaUltimoPago: datetime" style="text;strokeColor=none;fillColor=none;align=left;verticalAlign=top;spacingLeft=4;spacingRight=4;overflow=hidden;rotatable=0;points=[[0,0.5],[1,0.5]];portConstraint=eastwest;" parent="168" vertex="1"><mxGeometry y="26" width="200" height="26" as="geometry"/></mxCell><mxCell id="171" value="+ MontoUltimoPago: decimal" style="text;strokeColor=none;fillColor=none;align=left;verticalAlign=top;spacingLeft=4;spacingRight=4;overflow=hidden;rotatable=0;points=[[0,0.5],[1,0.5]];portConstraint=eastwest;" parent="168" vertex="1"><mxGeometry y="52" width="200" height="26" as="geometry"/></mxCell><mxCell id="174" value="" style="line;strokeWidth=1;fillColor=none;align=left;verticalAlign=middle;spacingTop=-1;spacingLeft=3;spacingRight=3;rotatable=0;labelPosition=right;points=[];portConstraint=eastwest;" parent="168" vertex="1"><mxGeometry y="78" width="200" height="8" as="geometry"/></mxCell><mxCell id="175" value="+ override Update(): void" style="text;strokeColor=none;fillColor=none;align=left;verticalAlign=top;spacingLeft=4;spacingRight=4;overflow=hidden;rotatable=0;points=[[0,0.5],[1,0.5]];portConstraint=eastwest;" parent="168" vertex="1"><mxGeometry y="86" width="200" height="26" as="geometry"/></mxCell><mxCell id="176" value="+ override Delete(): void" style="text;strokeColor=none;fillColor=none;align=left;verticalAlign=top;spacingLeft=4;spacingRight=4;overflow=hidden;rotatable=0;points=[[0,0.5],[1,0.5]];portConstraint=eastwest;" parent="168" vertex="1"><mxGeometry y="112" width="200" height="26" as="geometry"/></mxCell><mxCell id="177" value="+ override Alta(): void" style="text;strokeColor=none;fillColor=none;align=left;verticalAlign=top;spacingLeft=4;spacingRight=4;overflow=hidden;rotatable=0;points=[[0,0.5],[1,0.5]];portConstraint=eastwest;" parent="168" vertex="1"><mxGeometry y="138" width="200" height="26" as="geometry"/></mxCell><mxCell id="179" value="" style="endArrow=block;dashed=1;endFill=0;endSize=12;html=1;edgeStyle=orthogonalEdgeStyle;" parent="1" source="168" target="OYpLQ3D31SUY-RjP1pAd-1" edge="1"><mxGeometry width="160" relative="1" as="geometry"><mxPoint x="980" y="1100" as="sourcePoint"/><mxPoint x="1140" y="1100" as="targetPoint"/></mxGeometry></mxCell><mxCell id="180" value="Use" style="endArrow=open;endSize=12;dashed=1;html=1;rounded=0;edgeStyle=orthogonalEdgeStyle;" parent="1" source="168" target="OYpLQ3D31SUY-RjP1pAd-162" edge="1"><mxGeometry width="160" relative="1" as="geometry"><mxPoint x="2190" y="1223" as="sourcePoint"/><mxPoint x="2330" y="936" as="targetPoint"/><Array as="points"><mxPoint x="2200" y="1223"/></Array></mxGeometry></mxCell><mxCell id="185" value="IOnlyAlta&#10;Interface" style="swimlane;fontStyle=1;align=center;verticalAlign=top;childLayout=stackLayout;horizontal=1;startSize=40;horizontalStack=0;resizeParent=1;resizeParentMax=0;resizeLast=0;collapsible=1;marginBottom=0;" parent="1" vertex="1"><mxGeometry x="2321" y="200" width="160" height="66" as="geometry"/></mxCell><mxCell id="188" value="+ Alta(): Task&lt;int&gt;" style="text;strokeColor=none;fillColor=none;align=left;verticalAlign=top;spacingLeft=4;spacingRight=4;overflow=hidden;rotatable=0;points=[[0,0.5],[1,0.5]];portConstraint=eastwest;" parent="185" vertex="1"><mxGeometry y="40" width="160" height="26" as="geometry"/></mxCell><mxCell id="189" value="" style="endArrow=none;dashed=1;html=1;dashPattern=1 3;strokeWidth=2;edgeStyle=orthogonalEdgeStyle;" parent="1" source="185" edge="1"><mxGeometry width="50" height="50" relative="1" as="geometry"><mxPoint x="2600" y="220" as="sourcePoint"/><mxPoint x="2550" y="280" as="targetPoint"/></mxGeometry></mxCell><mxCell id="190" value="Rentas" style="swimlane;fontStyle=1;align=center;verticalAlign=top;childLayout=stackLayout;horizontal=1;startSize=30;horizontalStack=0;resizeParent=1;resizeParentMax=0;resizeLast=0;collapsible=1;marginBottom=0;" parent="1" vertex="1"><mxGeometry x="2610" y="517" width="190" height="298" as="geometry"><mxRectangle x="40" y="660" width="140" height="40" as="alternateBounds"/></mxGeometry></mxCell><mxCell id="191" value="+ IdRenta: int" style="text;strokeColor=none;fillColor=none;align=left;verticalAlign=top;spacingLeft=4;spacingRight=4;overflow=hidden;rotatable=0;points=[[0,0.5],[1,0.5]];portConstraint=eastwest;" parent="190" vertex="1"><mxGeometry y="30" width="190" height="26" as="geometry"/></mxCell><mxCell id="198" value="+ IdClienteRenta: int" style="text;strokeColor=none;fillColor=none;align=left;verticalAlign=top;spacingLeft=4;spacingRight=4;overflow=hidden;rotatable=0;points=[[0,0.5],[1,0.5]];portConstraint=eastwest;" parent="190" vertex="1"><mxGeometry y="56" width="190" height="26" as="geometry"/></mxCell><mxCell id="199" value="+ NombreClienteRenta: string" style="text;strokeColor=none;fillColor=none;align=left;verticalAlign=top;spacingLeft=4;spacingRight=4;overflow=hidden;rotatable=0;points=[[0,0.5],[1,0.5]];portConstraint=eastwest;" parent="190" vertex="1"><mxGeometry y="82" width="190" height="26" as="geometry"/></mxCell><mxCell id="192" value="+ IdEspacio: int" style="text;strokeColor=none;fillColor=none;align=left;verticalAlign=top;spacingLeft=4;spacingRight=4;overflow=hidden;rotatable=0;points=[[0,0.5],[1,0.5]];portConstraint=eastwest;" parent="190" vertex="1"><mxGeometry y="108" width="190" height="26" as="geometry"/></mxCell><mxCell id="200" value="+ NombreEspacio: string" style="text;strokeColor=none;fillColor=none;align=left;verticalAlign=top;spacingLeft=4;spacingRight=4;overflow=hidden;rotatable=0;points=[[0,0.5],[1,0.5]];portConstraint=eastwest;" parent="190" vertex="1"><mxGeometry y="134" width="190" height="26" as="geometry"/></mxCell><mxCell id="201" value="+ Dia: int" style="text;strokeColor=none;fillColor=none;align=left;verticalAlign=top;spacingLeft=4;spacingRight=4;overflow=hidden;rotatable=0;points=[[0,0.5],[1,0.5]];portConstraint=eastwest;" parent="190" vertex="1"><mxGeometry y="160" width="190" height="26" as="geometry"/></mxCell><mxCell id="193" value="+ HoraInicio: datetime" style="text;strokeColor=none;fillColor=none;align=left;verticalAlign=top;spacingLeft=4;spacingRight=4;overflow=hidden;rotatable=0;points=[[0,0.5],[1,0.5]];portConstraint=eastwest;" parent="190" vertex="1"><mxGeometry y="186" width="190" height="26" as="geometry"/></mxCell><mxCell id="202" value="+ HoraFin: datetime" style="text;strokeColor=none;fillColor=none;align=left;verticalAlign=top;spacingLeft=4;spacingRight=4;overflow=hidden;rotatable=0;points=[[0,0.5],[1,0.5]];portConstraint=eastwest;" parent="190" vertex="1"><mxGeometry y="212" width="190" height="26" as="geometry"/></mxCell><mxCell id="194" value="+ Costo:decimal" style="text;strokeColor=none;fillColor=none;align=left;verticalAlign=top;spacingLeft=4;spacingRight=4;overflow=hidden;rotatable=0;points=[[0,0.5],[1,0.5]];portConstraint=eastwest;" parent="190" vertex="1"><mxGeometry y="238" width="190" height="26" as="geometry"/></mxCell><mxCell id="195" value="" style="line;strokeWidth=1;fillColor=none;align=left;verticalAlign=middle;spacingTop=-1;spacingLeft=3;spacingRight=3;rotatable=0;labelPosition=right;points=[];portConstraint=eastwest;" parent="190" vertex="1"><mxGeometry y="264" width="190" height="8" as="geometry"/></mxCell><mxCell id="196" value="+ Alta(): void" style="text;strokeColor=none;fillColor=none;align=left;verticalAlign=top;spacingLeft=4;spacingRight=4;overflow=hidden;rotatable=0;points=[[0,0.5],[1,0.5]];portConstraint=eastwest;" parent="190" vertex="1"><mxGeometry y="272" width="190" height="26" as="geometry"/></mxCell><mxCell id="203" value="" style="endArrow=block;dashed=1;endFill=0;endSize=12;html=1;edgeStyle=orthogonalEdgeStyle;" parent="1" source="190" target="185" edge="1"><mxGeometry width="160" relative="1" as="geometry"><mxPoint x="2550" y="470" as="sourcePoint"/><mxPoint x="2710" y="470" as="targetPoint"/><Array as="points"><mxPoint x="2470" y="550"/></Array></mxGeometry></mxCell><mxCell id="204" value="AdminOnlyAlta" style="swimlane;fontStyle=1;align=center;verticalAlign=top;childLayout=stackLayout;horizontal=1;startSize=26;horizontalStack=0;resizeParent=1;resizeParentMax=0;resizeLast=0;collapsible=1;marginBottom=0;" parent="1" vertex="1"><mxGeometry x="2250" y="328" width="200" height="60" as="geometry"/></mxCell><mxCell id="205" value="" style="line;strokeWidth=1;fillColor=none;align=left;verticalAlign=middle;spacingTop=-1;spacingLeft=3;spacingRight=3;rotatable=0;labelPosition=right;points=[];portConstraint=eastwest;" parent="204" vertex="1"><mxGeometry y="26" width="200" height="8" as="geometry"/></mxCell><mxCell id="206" value="+ async Alta(IOnlyAlta objeto): Task" style="text;strokeColor=none;fillColor=none;align=left;verticalAlign=top;spacingLeft=4;spacingRight=4;overflow=hidden;rotatable=0;points=[[0,0.5],[1,0.5]];portConstraint=eastwest;" parent="204" vertex="1"><mxGeometry y="34" width="200" height="26" as="geometry"/></mxCell><mxCell id="208" value="Use" style="endArrow=open;endSize=12;dashed=1;html=1;edgeStyle=orthogonalEdgeStyle;" parent="1" source="204" target="185" edge="1"><mxGeometry width="160" relative="1" as="geometry"><mxPoint x="2460" y="220" as="sourcePoint"/><mxPoint x="2620" y="220" as="targetPoint"/></mxGeometry></mxCell></root></mxGraphModel></diagram></mxfile>